<?xml version="1.0" encoding="UTF-8"?>
<svg id="Capa_2" xmlns="http://www.w3.org/2000/svg" xmlns:xlink="http://www.w3.org/1999/xlink" viewBox="0 0 688.25 219.96">
  <defs>
    <style>
      .cls-1 {
        clip-path: url(#clippath-6);
      }

      .cls-2 {
        clip-path: url(#clippath-7);
      }

      .cls-3 {
        clip-path: url(#clippath-15);
      }

      .cls-4 {
        clip-path: url(#clippath-4);
      }

      .cls-5 {
        clip-path: url(#clippath-9);
      }

      .cls-6 {
        clip-path: url(#clippath-10);
      }

      .cls-7 {
        clip-path: url(#clippath-11);
      }

      .cls-8 {
        clip-path: url(#clippath-1);
      }

      .cls-9 {
        clip-path: url(#clippath-5);
      }

      .cls-10 {
        clip-path: url(#clippath-8);
      }

      .cls-11 {
        clip-path: url(#clippath-3);
      }

      .cls-12 {
        clip-path: url(#clippath-12);
      }

      .cls-13 {
        clip-path: url(#clippath-14);
      }

      .cls-14 {
        clip-path: url(#clippath-2);
      }

      .cls-15 {
        clip-path: url(#clippath-13);
      }

      .cls-16 {
        fill: #03619e;
      }

      .cls-17 {
        clip-path: url(#clippath);
      }
    </style>
    <clipPath id="clippath">
      <rect class="cls-16" x="167.07" y="60.37" width="9.15" height="5.69"/>
    </clipPath>
    <clipPath id="clippath-1">
      <path class="cls-16" d="M139.87,13.89c-2.25,0-4.08,1.83-4.08,4.08s1.83,4.08,4.08,4.08,4.08-1.83,4.08-4.08-1.83-4.08-4.08-4.08Z"/>
    </clipPath>
    <clipPath id="clippath-2">
      <rect class="cls-16" x="135.9" y="13.85" width="8.16" height="8.16"/>
    </clipPath>
    <clipPath id="clippath-3">
      <path class="cls-16" d="M139.87,13.89c-2.25,0-4.08,1.83-4.08,4.08s1.83,4.08,4.08,4.08,4.08-1.83,4.08-4.08-1.83-4.08-4.08-4.08Z"/>
    </clipPath>
    <clipPath id="clippath-4">
      <circle class="cls-16" cx="193.34" cy="44.06" r="4.08"/>
    </clipPath>
    <clipPath id="clippath-5">
      <rect class="cls-16" x="189.09" y="40.08" width="8.66" height="8.16"/>
    </clipPath>
    <clipPath id="clippath-6">
      <rect class="cls-16" x="189.34" y="40.08" width="8.16" height="8.16"/>
    </clipPath>
    <clipPath id="clippath-7">
      <circle class="cls-16" cx="193.34" cy="44.06" r="4.08" transform="translate(-4.84 37.36) rotate(-10.9)"/>
    </clipPath>
    <clipPath id="clippath-8">
      <circle class="cls-16" cx="117.22" cy="7.91" r="7.65" transform="translate(5.9 45.46) rotate(-22.5)"/>
    </clipPath>
    <clipPath id="clippath-9">
      <rect class="cls-16" x="109.42" width="15.59" height="15.83"/>
    </clipPath>
    <clipPath id="clippath-10">
      <rect class="cls-16" x="109.67" y=".25" width="15.34" height="15.34"/>
    </clipPath>
    <clipPath id="clippath-11">
      <circle class="cls-16" cx="117.22" cy="7.91" r="7.65" transform="translate(.62 22.31) rotate(-10.9)"/>
    </clipPath>
    <clipPath id="clippath-12">
      <circle class="cls-16" cx="201.5" cy="21.54" r="7.65" transform="translate(-.44 38.49) rotate(-10.9)"/>
    </clipPath>
    <clipPath id="clippath-13">
      <rect class="cls-16" x="193.54" y="13.61" width="15.59" height="15.83"/>
    </clipPath>
    <clipPath id="clippath-14">
      <rect class="cls-16" x="193.79" y="13.85" width="15.34" height="15.34"/>
    </clipPath>
    <clipPath id="clippath-15">
      <circle class="cls-16" cx="201.5" cy="21.54" r="7.65" transform="translate(7.09 78.75) rotate(-22.5)"/>
    </clipPath>
  </defs>
  <g id="Capa_1-2" data-name="Capa_1">
    <g id="b">
      <g>
        <polygon class="cls-16" points="310.13 69.27 307.91 73.12 301.14 61.54 303.36 57.68 310.13 69.27"/>
        <polygon class="cls-16" points="322.96 74.26 309.14 74.26 311.45 70.26 325.28 70.26 322.96 74.26"/>
        <polygon class="cls-16" points="325.12 79.94 327.21 83.56 310.71 112.26 306.51 112.26 325.12 79.94"/>
        <polygon class="cls-16" points="347.76 107.91 345.55 111.75 324.29 74.91 326.51 71.07 347.76 107.91"/>
        <polygon class="cls-16" points="343.32 74.26 341 70.26 353.28 70.26 350.97 74.26 343.32 74.26"/>
        <path class="cls-16" d="M354.17,72.45l3.04,5.28s.02.02.04.02l-6.11,10.56-6.95-12.05h7.26c.32,0,.63-.16.79-.45l1.93-3.35h0Z"/>
        <path class="cls-16" d="M356.17,68.89l-4.38-7.58,2.47-4.29,6.77,11.73s-.04.04-.05.07l-2.95,5.12-1.93-3.31c-.05-.11-.13-.18-.2-.25l.31-.54c.11-.18.13-.4.09-.61-.02-.04.02-.09,0-.13l-.07-.11s0-.04-.02-.05c0-.02-.02-.02-.04-.04h0Z"/>
        <polygon class="cls-16" points="349.17 108.26 361.23 108.26 358.93 112.26 346.86 112.26 349.17 108.26"/>
        <polygon class="cls-16" points="359.31 74.26 361.62 70.26 375.45 70.26 373.13 74.26 359.31 74.26"/>
        <polygon class="cls-16" points="374.57 78.71 376.68 82.36 362.57 106.13 360.46 102.49 374.57 78.71"/>
        <polygon class="cls-16" points="397.93 107.91 395.72 111.75 374.44 74.91 376.66 71.07 397.93 107.91"/>
        <polygon class="cls-16" points="393.9 74.26 391.59 70.26 403.35 70.26 400.99 74.26 393.9 74.26"/>
        <polygon class="cls-16" points="399.31 108.26 410.88 108.26 408.56 112.26 397.01 112.26 399.31 108.26"/>
        <path class="cls-16" d="M414.17,56.53c-3.19,0-5.55,2.59-5.55,5.73s2.36,5.73,5.58,5.73,5.48-2.52,5.48-5.67-2.32-5.78-5.51-5.78h0ZM415.75,66.26c-.23-.49-.36-1.16-.58-1.99-.13-.79-1.5-1.01-1.5-1.01h-.5v3h-2v-7.41c.72-.13,1.64-.22,2.81-.22,1.37,0,1.98.22,2.5.52.4.31.7.88.7,1.57,0,.79-.61,1.41-2.01,1.68v.07c1.21.27,1.61.79,1.83,1.77.22,1.08.34,1.53.52,2.02h-1.78,0ZM414.09,60.12c-.43,0-.74.05-.92.09v2.05h.79c.92,0,1.66-.31,1.66-1.04,0-.65-.49-1.1-1.53-1.1ZM414.17,56.52c-3.19,0-5.55,2.59-5.55,5.73s2.36,5.73,5.58,5.73,5.48-2.52,5.48-5.67-2.32-5.78-5.51-5.78h0ZM415.75,66.26c-.23-.5-.36-1.17-.58-2-.13-.79-1.5-1-1.5-1h-.5v3h-2v-7.42c.72-.13,1.64-.22,2.81-.22,1.37,0,1.98.22,2.5.52.4.31.7.88.7,1.57,0,.79-.61,1.41-2.01,1.68v.07c1.21.27,1.61.79,1.83,1.77.22,1.08.34,1.53.52,2.03h-1.78,0ZM414.09,60.12c-.43,0-.74.05-.92.09v2.05h.79c.92,0,1.66-.31,1.66-1.04,0-.65-.49-1.1-1.53-1.1ZM418.17,36.26h-128.72c-6.79,0-12.28,5.5-12.28,12.28v73.49c0,6.75,5.48,12.23,12.23,12.23h128.54c6.75,0,12.23-5.48,12.23-12.23V48.57c0-6.79-5.38-12.28-12-12.28v-.03ZM413.17,108.79v-.87s-.1.11-.12.14c-.02.04-.04.04-.05.05-.02.07-.02.16-.05.22l-3.26,5.64c-.16.29-.47.45-.77.29h-13.19c-.32.16-.61,0-.77-.29l-17.24-29.85-14.36,24.21-3.26,5.64c-.11.22-.31.32-.5.38-.13.07-.4.91-.4.91h-13.62s-.32-.87-.45-1h.04v.04s-.22-.11-.28-.18c-.04-.04-.05-.07-.07-.11l-.04-.04-16.52-28.63-16.16,28.1s-.05.05-.07.09c-.14.29-.45.5-.81.73h-6.18c-.2-.23-.38-.3-.54-.43l-.02-.02c-.05-.04-.09-.07-.11.45h-.2v.47c-.07-.09-.11-.16-.14-.25l-7.93-13.73c-.05-.11-.05-.25,0-.37l13.93-24.12h-2.21c-.16,0-.29-.04-.42-.11-.04-.02-.07-.04-.09-.07-.09-.05-.16-.13-.23-.22,0-.02-.04-.02-.05-.05l-7.89-13.47c-.2-.29-.23-.66-.05-.98l3.24-5.63c.14-.23.39-.39.64-.42.04-.02.07-.04.09-.04h44.71c.13,0,.25.07.32.2l2.43,4.26,2.27-4.01c.14-.25.41-.41.68-.42.02-.02.05-.04.07-.04h44.39c.13,0,.25.07.32.2l7.94,13.97v.13c.02.07.02.13,0,.2,0,.02.02.02,0,.04,0,.02-.02.02-.02.04-.02.07-.05.16-.11.27l-3.3,5.68c-.16.29-.45.46-.77.46h-7.22l18.21,31.98c.04.05.07.07.11.11.02.05.02.11.04.14l.07.13c.02.05-.02.09,0,.14v.02ZM414.04,69.5c-4.11,0-7.39-3.19-7.39-7.26s3.28-7.17,7.39-7.17,7.35,3.19,7.35,7.17-3.21,7.26-7.35,7.26ZM414.17,56.51c-3.19,0-5.55,2.59-5.55,5.73s2.36,5.73,5.58,5.73,5.48-2.52,5.48-5.67-2.32-5.78-5.51-5.78h0ZM415.75,66.26c-.23-.51-.36-1.18-.58-2.01-.13-.79-1.5-.99-1.5-.99h-.5v3h-2v-7.43c.72-.13,1.64-.22,2.81-.22,1.37,0,1.98.22,2.5.52.4.31.7.88.7,1.57,0,.79-.61,1.41-2.01,1.68v.07c1.21.27,1.61.79,1.83,1.77.22,1.08.34,1.53.52,2.04h-1.78,0ZM414.09,60.12c-.43,0-.74.05-.92.09v2.05h.79c.92,0,1.66-.31,1.66-1.04,0-.65-.49-1.1-1.53-1.1Z"/>
      </g>
      <path class="cls-16" d="M608.17,59.26h18v9h-18v-9Z"/>
      <g>
        <path class="cls-16" d="M506.17,38.26v38h-11v-28.6l-16.53,28.6h-9.17l-16.31-28.6v28.6h-11v-38h18.27l13.86,25.18,13.69-25.18h18.18Z"/>
        <path class="cls-16" d="M540.17,48.26v28h-12v-28h-16v-9h45v9h-17Z"/>
        <path class="cls-16" d="M592.17,48.26v28h-12v-28h-17v-9h45v9h-16Z"/>
        <path class="cls-16" d="M670.21,50.26c-.17-3.47-1.85-3.75-8.52-3.75-.56,0-.9,0-1.45.06-9.63.51-12.94-.56-12.94,3.58,0,1.85,1.45,2.8,3.81,2.86,3.3.06,6.39.17,9.01.17,1.57,0,3.3-.06,4.82-.06,12.44,0,18.04.45,18.04,11.48,0,7.79-2.97,10.53-9.8,11.31-2.02.22-7.95.62-16.86.62s-14.34-.34-16.87-2.13c-3.58-2.58-3.08-5.66-3.13-10.14h11.26c.06,1.68-.45,3.64,3.53,3.98.96.06,3.75.17,7.73.17,10.53,0,12.72-.06,12.72-3.41s-2.86-3.3-7.11-3.36c-22.01-.17-28.4,1.17-28.4-11.14,0-7.39,2.35-10.53,9.52-11.37,2.35-.28,7.84-.68,15.85-.68,8.57,0,13.38,0,16.41,2.19,3.3,2.41,3.47,5.26,3.53,9.63h-11.16Z"/>
      </g>
      <g>
        <path class="cls-16" d="M445.17,89.26v15h-3v-15h3Z"/>
        <path class="cls-16" d="M457.17,89.26v2h-7v4h5v2h-5v5h6v2h-8v-15h9Z"/>
        <path class="cls-16" d="M467.17,89.26v2h-6v4h5v2h-5v5h6v2h-9v-15h9Z"/>
        <path class="cls-16" d="M478.17,89.26v2h-6v4h5v2h-5v5h6v2h-9v-15h9Z"/>
        <path class="cls-16" d="M488.72,89.26l2.9,10.81,2.99-10.81h3.57v15h-2v-12.83l-3.84,12.83h-1.78l-3.38-12.82v12.82h-2v-15h3.55,0Z"/>
        <path class="cls-16" d="M504.17,89.26v15h-3v-15h3Z"/>
        <path class="cls-16" d="M517.06,99.26c-.48,3.4-2.14,5.1-5.01,5.1-3.56,0-5.54-2.83-5.54-7.93s2.02-7.96,5.59-7.96c.51,0,.99.07,1.45.18,2,.53,3.13,2.14,3.54,5.06l-2.37.34c-.16-1.29-.32-1.86-.64-2.39-.44-.74-1.08-1.1-1.93-1.1-1.98,0-2.94,1.95-2.94,5.98,0,3.82.99,5.73,2.97,5.73,1.45,0,2.16-.92,2.55-3.33l2.35.32h-.02Z"/>
        <path class="cls-16" d="M524.32,89.17c1.61,0,2.64.28,3.43.87.94.76,1.47,2,1.47,3.5,0,1.91-.74,3.15-2.34,4.02l2.9,6.7h-3.14l-2.23-6h-2.23v6h-3v-15h5.15v-.09ZM522.16,96.26h1.96c1.61,0,2.51-.94,2.51-2.61,0-.3-.02-.55-.09-.8-.3-1.1-1.04-1.59-2.41-1.59h-1.96v5h0Z"/>
        <path class="cls-16" d="M538.42,89.12c2.58.78,3.86,3.38,3.86,7.73,0,1.29-.14,2.51-.41,3.63-.64,2.76-2.46,4.3-5.06,4.3-.6,0-1.17-.09-1.7-.23-2.51-.78-3.84-3.43-3.84-7.66,0-5.29,1.91-8,5.61-8,.55,0,1.06.07,1.54.23h0ZM535.82,91.26c-1.26.55-1.89,2.44-1.89,5.68,0,.64.02,1.22.07,1.77.28,2.83,1.13,4.09,2.78,4.09,1.93,0,2.83-1.86,2.83-5.86,0-.64-.02-1.22-.07-1.72-.28-2.85-1.13-4.12-2.74-4.12-.41,0-.69.05-.99.16h.01Z"/>
        <path class="cls-16" d="M546.02,89.26l2.02,11.23,2.35-11.23h2.13l2.33,11.23,2.13-11.23h2.09l-3.16,15h-2.23l-2.36-10.98-2.33,10.98h-2.27l-3.23-15h2.53Z"/>
        <path class="cls-16" d="M565.8,89.26l4,15h-2.32l-1.01-4h-4.67l-.98,4h-2.15l4.34-15h2.79ZM564.16,91.26l-1.75,7h3.47l-1.73-7h0Z"/>
        <path class="cls-16" d="M572.34,89.26l2.85,11.94,2.83-11.94h2.2l-3.96,15-2.68-.02-3.87-14.98h2.62Z"/>
        <path class="cls-16" d="M591.17,89.26v2h-6v4h4v2h-4v5h6v2h-9v-15h9Z"/>
        <path class="cls-16" d="M604.17,89.26v2h-3v13h-3v-13h-3v-2h9Z"/>
        <path class="cls-16" d="M608.17,89.26v6h5v-6h3v15h-3v-7h-5v7h-2v-15h2Z"/>
        <path class="cls-16" d="M627.17,89.26v2h-6l1,4h4v2h-4v5h6v2h-9v-15h8Z"/>
        <path class="cls-16" d="M636.08,89.12c2.58.78,3.86,3.38,3.86,7.73,0,1.29-.14,2.51-.41,3.63-.64,2.76-2.46,4.3-5.06,4.3-.6,0-1.17-.09-1.7-.23-2.51-.78-3.84-3.43-3.84-7.66,0-5.29,1.91-8,5.61-8,.55,0,1.06.07,1.54.23h0ZM633.48,91.26c-1.26.55-1.89,2.44-1.89,5.68,0,.64.02,1.22.07,1.77.28,2.83,1.13,4.09,2.78,4.09,1.93,0,2.83-1.86,2.83-5.86,0-.64-.02-1.22-.07-1.72-.28-2.85-1.13-4.12-2.74-4.12-.41,0-.69.05-.99.16h.01Z"/>
        <path class="cls-16" d="M647.07,89.17c1.61,0,2.64.28,3.43.87.94.76,1.47,2,1.47,3.5,0,1.91-.74,3.15-2.34,4.02l2.9,6.7h-2.89l-2.23-6h-2.23v6h-3v-15h4.9v-.09ZM645.16,96.26h1.96c1.61,0,2.51-.94,2.51-2.61,0-.3-.02-.55-.09-.8-.3-1.1-1.04-1.59-2.41-1.59h-1.96v5h0Z"/>
        <path class="cls-16" d="M655.33,89.26l2.81,6.3,2.87-6.3h2.42l-4.26,8.76v6.24h-3v-6.24l-3.59-8.76h2.76-.01Z"/>
        <path class="cls-16" d="M681.17,96.36c-.87,2.25-1.42,3.63-2.5,5.22.67.78,1.03,1.03,1.61,1.03.21,0,.34-.02-.11-.09v1.98c.27.16-.04.21-.42.21-.41,0-.8-.09-1.15-.23-.51-.25-.83-.55-1.45-1.29-1.38,1.17-2.42,1.59-3.93,1.59-.55,0-1.08-.07-1.59-.23-1.84-.53-3.04-2.21-3.04-4.28,0-.51.07-.97.21-1.43.46-1.38,1.4-2.3,3.15-3.13-.97-1.49-1.36-2.53-1.36-3.52,0-.44.09-.83.28-1.26.55-1.29,1.82-2.05,3.33-2.05,2.07,0,3.45,1.33,3.45,3.33,0,1.59-.9,2.87-2.78,3.98l2.6,3.77c.67-1.08,1.04-2.18,1.38-4.02l2.32.41h0ZM673.17,97.16c-1.36.85-1.91,1.72-1.91,2.99,0,.44.09.87.25,1.26.37.9,1.22,1.45,2.25,1.45.97,0,1.7-.34,2.51-1.2l-3.1-4.51h0ZM675.64,92.19c0-.16-.02-.32-.05-.48-.16-.69-.67-1.1-1.33-1.1-.16,0-.32.02-.51.09-.58.21-.92.74-.92,1.43,0,.74.34,1.63,1.03,2.67,1.17-.67,1.77-1.56,1.77-2.6h.01Z"/>
        <path class="cls-16" d="M449.17,114.26v2h-3s0,13,0,13h-3v-13h-3v-2h9Z"/>
        <path class="cls-16" d="M460.17,114.26v2h-6v4h5v2h-5v5h6v2h-9v-15h9Z"/>
        <path class="cls-16" d="M471.86,124.26c-.48,3.4-2.14,5.1-5.01,5.1-3.56,0-5.54-2.83-5.54-7.93s2.02-7.96,5.59-7.96c.51,0,.99.07,1.45.18,2,.53,3.13,2.14,3.54,5.06l-2.37.34c-.16-1.29-.32-1.86-.64-2.39-.44-.74-1.08-1.1-1.93-1.1-1.98,0-2.94,1.95-2.94,5.98,0,3.82.99,5.73,2.97,5.73,1.45,0,2.16-.92,2.55-3.33l2.35.32h-.02Z"/>
        <path class="cls-16" d="M477.17,114.26v6h4v-6h3v15h-3v-7h-4v7h-3v-15h3Z"/>
        <path class="cls-16" d="M490.15,114.26l5.02,10.81v-10.81h2v15h-2.36l-5.64-12.01v12.01h-2v-15h2.98Z"/>
        <path class="cls-16" d="M506.48,113.88c2.58.78,3.86,3.38,3.86,7.73,0,1.29-.14,2.51-.41,3.63-.64,2.76-2.46,4.3-5.06,4.3-.6,0-1.17-.09-1.7-.23-2.51-.78-3.84-3.43-3.84-7.66,0-5.29,1.91-8,5.61-8,.55,0,1.06.07,1.54.23h0ZM503.88,116.26c-1.26.55-1.89,2.44-1.89,5.68,0,.64.02,1.22.07,1.77.28,2.83,1.13,4.09,2.78,4.09,1.93,0,2.83-1.86,2.83-5.86,0-.64-.02-1.22-.07-1.72-.28-2.85-1.13-4.12-2.74-4.12-.41,0-.69.05-.99.16h.01Z"/>
        <path class="cls-16" d="M515.17,114.26v13h5v2h-8v-15h3Z"/>
        <path class="cls-16" d="M528.95,113.88c2.58.78,3.86,3.38,3.86,7.73,0,1.29-.14,2.51-.41,3.63-.64,2.76-2.46,4.3-5.06,4.3-.6,0-1.17-.09-1.7-.23-2.51-.78-3.84-3.43-3.84-7.66,0-5.29,1.91-8,5.61-8,.55,0,1.06.07,1.54.23h0ZM526.35,116.26c-1.26.55-1.89,2.44-1.89,5.68,0,.64.02,1.22.07,1.77.28,2.83,1.13,4.09,2.78,4.09,1.93,0,2.83-1.86,2.83-5.86,0-.64-.02-1.22-.07-1.72-.28-2.85-1.13-4.12-2.74-4.12-.41,0-.69.05-.99.16h.01Z"/>
        <path class="cls-16" d="M545.17,121.26v8h-1.35l-.34-1.97c-.88,1.49-2,2.15-3.72,2.15-3.44,0-5.53-2.97-5.53-7.89,0-1.65.23-3.14.72-4.56.81-2.33,2.65-3.63,5.12-3.63,2.88,0,4.42,1.42,5.05,4.73l-2.33.59c-.25-1.21-.41-1.7-.72-2.15-.45-.7-1.14-1.04-2-1.04-2.09,0-3.12,1.93-3.12,5.93,0,.86.07,1.7.18,2.51.32,2.21,1.38,3.4,3.01,3.4,1.79,0,2.65-1.31,2.65-4.05h-2.61v-2h5.01,0Z"/>
        <path class="cls-16" d="M548.87,114.26l2.81,6.06,2.87-6.06h2.42l-3.8,8.52v6.48h-3v-6.48l-4.05-8.52h2.76-.01Z"/>
        <path class="cls-16" d="M569.2,118.11c-.58-1.72-1.31-2.37-2.69-2.37-.25,0-.46.02-.69.07-.8.21-1.4.99-1.4,1.86,0,.23.05.46.12.64.3.76.8,1.08,2.94,1.91,1.52.58,2.23.94,2.92,1.54.85.74,1.36,1.86,1.36,3.13,0,2.74-2.09,4.65-5.13,4.65-1.59,0-2.94-.51-3.89-1.45-.74-.74-1.1-1.45-1.42-2.83l2.25-.64c.41,1.91,1.43,2.83,3.1,2.83.28,0,.53-.02.78-.09,1.03-.23,1.7-1.03,1.7-2.12,0-1.15-.64-1.77-2.6-2.51-2.12-.8-2.51-.99-3.24-1.63-.87-.76-1.38-1.89-1.38-3.13,0-2.55,1.93-4.32,4.71-4.32.53,0,1.04.07,1.52.18,1.63.44,2.58,1.49,3.2,3.52l-2.16.76h0Z"/>
        <path class="cls-16" d="M580.74,113.88c2.58.78,3.86,3.38,3.86,7.73,0,1.29-.14,2.51-.41,3.63-.64,2.76-2.46,4.3-5.06,4.3-.6,0-1.17-.09-1.7-.23-2.51-.78-3.84-3.43-3.84-7.66,0-5.29,1.91-8,5.61-8,.55,0,1.06.07,1.54.23h0ZM578.14,116.26c-1.26.55-1.89,2.44-1.89,5.68,0,.64.02,1.22.07,1.77.28,2.83,1.13,4.09,2.78,4.09,1.93,0,2.83-1.86,2.83-5.86,0-.64-.02-1.22-.07-1.72-.28-2.85-1.13-4.12-2.74-4.12-.41,0-.69.05-.99.16h.01Z"/>
        <path class="cls-16" d="M597.19,124.26c-.48,3.4-2.14,5.1-5.01,5.1-3.56,0-5.54-2.83-5.54-7.93s2.02-7.96,5.59-7.96c.51,0,.99.07,1.45.18,2,.53,3.13,2.14,3.54,5.06l-2.37.34c-.16-1.29-.32-1.86-.64-2.39-.44-.74-1.08-1.1-1.93-1.1-1.98,0-2.94,1.95-2.94,5.98,0,3.82.99,5.73,2.97,5.73,1.45,0,2.16-.92,2.55-3.33l2.35.32h-.02Z"/>
        <path class="cls-16" d="M602.17,114.26v15h-3v-15h3Z"/>
        <path class="cls-16" d="M613.17,114.26v2h-6l1,4h4v2h-4v5h6v2h-9v-15h8Z"/>
        <path class="cls-16" d="M624.17,114.26v2h-3s0,13,0,13h-3v-13h-3v-2h9Z"/>
        <path class="cls-16" d="M627.39,114.26l2.81,6.06,2.87-6.06h2.42l-4.32,8.52v6.48h-3v-6.48l-3.53-8.52h2.76-.01Z"/>
      </g>
    </g>
    <g>
      <g>
        <path class="cls-16" d="M170.06,84.63c1.86-.06.26,1.75,1.78,2.03,1.4-.64,3.51-.98,3.89-3.15,1.26-7.11,7.63-8.52,12.36-11.84q4.23,6.03.38,11.51c-1.09,1.55-2.16,3.12-3.24,4.68,6.61-2.74,11.61,1.43,17.06,2.44.3,5.52-2.76,10.73,1.28,16.27-.07-2.48,1.02-3.79,1.86-5.25,1.46-2.51,3.7-1.6,5.72-1.55,2.4.05,2,2.1,2.22,3.58.65,4.3,1.22,8.63,1.83,12.94.18.03.37.07.55.1,1.13-3.46,2.27-6.92,3.43-10.48,4.27,3.85,21.66,10.06,26.31,8.88-17.96-5.69-29.78-17.41-38.37-32.75-1.08-1.92-2.88-2.31-4.67-2.7-3.87-.85-6.65-2.82-8.61-6.39-1.94-3.53-4.47-6.73-7.13-10.65-2.97,5.58-5.69,10.4-12.02,11.07-.58.07-1.14,1.07-1.58,1.72-3.07,4.54-6.11,9.1-9.16,13.65.17.15.34.32.5.49,2.32-1.07,3.4-3.73,5.61-4.6ZM171.77,82.71c.96,1.27.29,1.72-.86,2.14-.51-1.4.49-1.5.86-2.14Z"/>
        <path class="cls-16" d="M32.94,113.64c.19,1.47.33,2.52.48,3.66.91-.27,1.83-.52,2.76-.77,1.78-.95,3.53-1.9,5.4-2.9.15.55.29,1.06.43,1.56,2.09-.41,4.25-.77,6.48-1.09,2.81-3.05,5.93-5.5,11.59-3.73-1.94-4.27-2.73-7.74-1.37-11.74,3.38,2.71,6.44,5.16,9.42,7.55-1.43,2.82-3.49,4.83-5.67,6.64.78-.04,1.56-.07,2.35-.1,1.94-.07,3.98-.11,6.05-.12l5.6.12c3.52-2.84,8.08-3.95,12.9-4.63,1.32-.19,2.58-.69,3.9-.93.9-.16,1.94-.42,2.74-.13,6.97,2.47,13.41,5.98,19.34,10.33,1.87.34,3.74.69,5.6,1.05-7.47-12.81-20.99-19.09-34.8-26.73,7.36-.65,9.52-5.49,12.43-9.81,4.14-6.17,6.25-14.17,14.37-17.02.23-.08.49-.32.56-.54,1.58-5.29,6.45-7.97,9.33-12.25,4.23,3.7,6.54,7.85,5.2,13.42-3.24,1.01-7.11-.41-9.66,2.04-4.4,4.23-8.5,8.82-13.23,13.86.26.17.5.36.72.59.07.07.12.16.19.23.45.05.89.1,1.34.18.33.06.63.15.94.24,1.06.06,2.04.09,3,0,3.35-.29,5.5.97,7.04,3.95.96,1.86,1.86,3.97,3.81,5.07,8.6,4.85,16.71,10.66,26.4,13.33,2.7.74,4.8,2.45,7.14,3.85,4.54,2.72,7.87,6.7,11.8,10.02.63-2.36-1.14-4.54-.51-7.31,4.23,4.53,3.78,10.73,6.11,16.04.54.07,1.07.13,1.6.19.23-1.36.15-2.56-.3-3.57-.87-1.94-.43-3.53-.09-4.84,5.92-2.47,10.06-.12,13.89,3.76,2.09,2.11,4.44,3.96,6.76,6.03h1.32l1.05-.25c-4.87-5.8-9.8-11.61-14.51-17.57-4.92-6.23-10.01-12.19-17.29-15.81-1.11-.55-1.87-1.44-2.45-2.56-2.9-5.54-6.17-10.92-8.69-16.63-2.56-5.79-6.37-10.05-12-12.8-5.15-2.53-8.59-6.57-10.84-11.83-1.78-4.17-3.96-8.16-6.17-12.66-3.9,4.23-7.61,8.21-11.27,12.24-2.78,3.06-6.82,5.59-3.95,11.1-5.07.23-6.87,3.47-8.72,6.81-2.33,4.21-4.99,8.24-7.31,12.46-1.11,2.02-2.54,3.35-4.74,3.92-4.47,1.16-7.79,3.85-10.55,7.51-2.47,3.26-5.22,6.3-7.88,9.47-5.2-3.58-8.88-8.26-13.65-12.08-3.15,3.49-6.26,6.78-9.2,10.22-1.56,1.83-3.26,2.82-5.72,3.17-2.28.32-4.89-.12-6.8,1.84-5.32,5.45-10.65,10.87-15.99,16.31.16.16.32.32.47.49,4.2-2.9,8.4-5.8,12.86-8.88ZM155.12,87.07c3.87,6.37,8.12,12.25,15.02,15.67.56.28,1.19.63,1.04,2.17-13.76-4.86-24.21-13.61-33.01-24.88,6.73-1.13,13.66,1.62,16.96,7.04Z"/>
        <path class="cls-16" d="M244.2,122.38c-1.96,1.87-4.05,3.57-6.25,5.08-4.41,3.01-9.2,5.32-14.21,6.93-10.02,3.23-20.7,3.84-31.19,2.99-5.25-.41-10.49-1.23-15.65-2.32-2.57-.55-5.13-1.21-7.62-1.92l-7.74-2.43-3.98-1.25c-1.33-.42-2.67-.76-4-1.14-2.67-.74-5.34-1.5-8.02-2.22-2.69-.68-5.39-1.32-8.09-1.97-2.7-.65-5.43-1.18-8.15-1.77-21.78-4.43-44.22-6.53-66.53-4.85-11.14.9-22.24,2.73-32.95,5.92-5.34,1.63-10.6,3.52-15.65,5.91-2.51,1.2-4.99,2.48-7.38,3.88-2.37,1.44-4.71,2.95-6.8,4.76,2.43-1.3,4.93-2.39,7.49-3.34,2.54-.97,5.12-1.83,7.73-2.59,5.21-1.51,10.48-2.7,15.8-3.61,10.63-1.82,21.38-2.62,32.13-2.71,21.51-.11,42.95,2.59,64.1,6.86,10.59,2.09,21.1,4.71,31.53,7.56l8.04,2.19c2.81.71,5.6,1.24,8.41,1.7,5.61.93,11.29,1.41,16.98,1.47,5.69.04,11.4-.35,17.03-1.38,5.62-1.02,11.17-2.64,16.36-5.03,5.19-2.4,10.04-5.54,14.15-9.43,2.05-1.94,3.93-4.04,5.61-6.26,1.66-2.25,3.15-4.59,4.38-7.06-1.73,2.14-3.55,4.18-5.53,6.02Z"/>
      </g>
      <path class="cls-16" d="M90.8,10.47c1.63,1.27,1.88,3.57.56,5.14-1.32,1.57-3.71,1.81-5.34.54-1.63-1.27-1.88-3.57-.56-5.14,1.32-1.57,3.71-1.81,5.34-.54ZM81.14,26.35c1.43,1.11,1.65,3.13.49,4.5-1.15,1.37-3.25,1.58-4.68.47-1.43-1.11-1.65-3.13-.49-4.5,1.15-1.37,3.25-1.58,4.68-.47ZM67.71,7.45c2.14,1.67,2.47,4.69.74,6.75-1.73,2.06-4.87,2.37-7.01.71-2.14-1.67-2.47-4.69-.74-6.75,1.73-2.06,4.87-2.37,7-.71ZM71.11,58.55c-1.44-1.12-3.55-.91-4.72.48-1.16,1.39-.94,3.42.5,4.54,1.44,1.12,3.56.91,4.72-.47,1.17-1.39.94-3.42-.5-4.55ZM63.89,36.55c2.04,1.59,2.35,4.47.7,6.43-1.65,1.96-4.64,2.26-6.68.67-2.04-1.59-2.35-4.47-.7-6.43,1.65-1.96,4.64-2.26,6.68-.67ZM117.45,45.12c-1.79-.63-2.89-1.12-4.56-1.58-.16.33-.37.66-.62.96-.1.11-.19.22-.3.32.08.13.16.26.24.39.28.46.55.92.8,1.39,3.14,5.66,7.43,4.94,7.07,1.84-.55-.07-.85-2.68-2.64-3.31ZM110.69,27.29c.57,3.19.55,6.65-.03,10.21.32.15.63.34.91.56,1.18.92,1.79,2.28,1.76,3.64,1.83.5,3.52,1.09,5,1.73.2-.19.43-.36.68-.49-.17-.59-.35-1.19-.55-1.78-1.56-4.67-4.1-9.32-7.58-13.64l-.19-.24ZM80.4,69.03c1.41-.49,2.81-1.03,4.17-1.61.62-.27,1.23-.54,1.84-.83,3.12-1.47,6.04-3.21,8.6-5.2-.79-1.52-.65-3.41.53-4.82,1.24-1.47,3.25-1.99,5.02-1.44l.81-.3c1.47-2.15,2.73-4.35,3.79-6.55.09-.19.18-.38.27-.58.32-.69.62-1.38.9-2.07-.25-.13-.49-.29-.73-.47-.87-.68-1.43-1.59-1.65-2.57l-.81-.68c-.31-.02-.62-.04-.93-.05-4.01-.19-8.19.11-12.14,1.08.13,1.15-.2,2.34-1.01,3.31-1.15,1.36-2.95,1.91-4.62,1.56l-.02.05c-2.38,5.97-3.78,13.61-4.03,21.17ZM111.3,47.47c-.07-.12-.23-.42-.46-.81-.16-.27-.32-.54-.48-.81-.68.26-1.42.37-2.15.31-.48,1.21-1.03,2.41-1.63,3.62-.64,1.28-1.34,2.55-2.12,3.81-.4.66-.83,1.32-1.27,1.97-.19.28-.39.57-.59.84,1.48,1.6,1.59,4.05.14,5.77-.43.51-.95.91-1.53,1.18.36,1.92.59,4,.7,6.19.05,1.06.07,2.15.06,3.26,0,0,0,0,0,0,.18.39,14.04-16.45,11.82-20.86-.1-.19-.9-1.63-2.49-4.5ZM78.62,76.22c-.05-.68-.08-1.36-.11-2.04-.03-.78-.05-1.56-.05-2.34v-.18c-.3.09-.61.18-.91.26-4.76,1.35-9.61,2.17-14.16,2.44,3.94,1.72,8.48,3.02,13.33,3.75.12-.33.31-.64.55-.93.37-.44.84-.76,1.35-.96ZM99.97,74.61c.06-1.67.06-3.29,0-4.86-.09-2.1-.3-4.09-.64-5.92-1.08.04-2.17-.28-3.08-.98-2.9,2.25-6.21,4.18-9.75,5.79-.37.17-.74.33-1.12.5-1.63.7-3.31,1.34-5.01,1.9,0,.2,0,.4,0,.61,0,.82.02,1.64.05,2.46.03.65.06,1.3.1,1.95.51.1,1,.32,1.42.65.68.53,1.09,1.26,1.21,2.03,1.25.05,2.5.07,3.77.04,1.48-.03,2.96-.11,4.45-.25,1.99-.19,3.99-.48,5.98-.88.04-.67.28-1.34.76-1.9.49-.59,1.16-.97,1.87-1.13ZM81.99,91.4c-1.2-2.66-2.08-5.75-2.68-9.09-.57-.08-1.12-.31-1.6-.68-.59-.46-.97-1.07-1.14-1.73-5.17-.76-10-2.14-14.18-3.99-.17.18-.35.35-.55.49l5.89,13.37c.06,0,.11-.02.17-.02h0c1-.1,2.03.17,2.87.82.16.12.3.26.44.4,4.57-1.68,8.46-.64,10.78.43ZM95.06,80.07c-2.07.42-1.51.13-3.6.33-1.53.14-3.05.23-4.56.26-1.39.03-2.77,0-4.13-.06-.11.23-.25.44-.42.65-.33.4-.75.7-1.2.9.72,4.1,1.9,7.78,3.57,10.65M84.72,92.79c2.49-3.43,6.3-6.39,8.47-8.97.72-.86,1.8-3.61,1.87-3.75M124.33,40.78c-2.16-4.84-5.83-8.88-10.08-12.26-.1-.08-.26-.21-.47-.37,2.93,3.99,5.12,8.21,6.53,12.44.23.68.43,1.35.62,2.03.34.92,2.85,2.89,2.32,4.06.44.44,2.44-2.83,1.07-5.91ZM97.77,28.31c.97.76,1.34,1.97,1.05,3.07.35.23.69.47,1.03.71,2.39,1.7,4.55,3.58,6.46,5.59.74-.38,1.56-.55,2.38-.53.59-3.72.53-7.29-.2-10.52-.99.03-2.01-.31-2.79-1.06-1.26-1.2-1.49-3.12-.53-4.56,1.24-1.87,3.85-2.24,5.58-.88,1.34,1.05,1.75,2.8,1.11,4.26,1.52,1.16,3.13,2.41,3.58,2.77,0,0,0,0,0,0,4.85,3.64,9.48,9.9,10.61,12.98.83,2.27.31,5-19.75,28.69-5.08,5.99-10.7,12.5-18.24,20.38-2.08,2.17-3.84,3.96-5.08,5.21-.21-.15-.49-.34-.83-.54-.45-.26-1.07-.58-1.82-.86-1.96-.74-4.85-1.26-8.2-.1.03.15.06.3.08.45v-.09s0,0,0,0c.1.96-.17,1.95-.84,2.75-.67.8-1.61,1.27-2.6,1.37h0c-.99.1-2.01-.16-2.84-.81-.83-.65-1.31-1.57-1.41-2.52h0c-.1-.96.17-1.95.84-2.76.2-.24.42-.44.66-.62l-5.82-13.31c-.05,0-.11.01-.17.02h-.12c-1,.1-2.03-.17-2.87-.82-.84-.66-1.32-1.58-1.43-2.54h0c-.11-.97.17-1.96.85-2.77.68-.81,1.63-1.27,2.63-1.37h0c1-.1,2.03.16,2.87.82.65.51,1.09,1.18,1.3,1.9,4.87-.28,10.1-1.23,15.18-2.8.15-6.42,1.12-12.94,2.8-18.56.43-1.43.91-2.81,1.43-4.11-.05-.04-.1-.08-.15-.12-2.18-1.71-2.35-4.93-.19-6.83,1.45-1.28,3.62-1.52,5.34-.61.78.41,1.38,1,1.79,1.67.63-.16,1.27-.3,1.91-.42,3.22-.63,6.53-.86,9.76-.79.71.02,1.41.05,2.11.09.28.02.56.04.84.06.17-.47.42-.92.76-1.32-1.95-2.04-4.17-3.94-6.63-5.64l-.77-.05c-1.08.63-2.5.57-3.54-.24-.93-.73-1.31-1.88-1.08-2.94.03-.16.16-.76.62-1.27.89-.97,2.63-1.14,4.35-.44Z"/>
      <g>
        <path class="cls-16" d="M94.22,137.69l-.88,4.11-1.38-.29,2.25-10.5,3.87.83c1.15.25,1.99.74,2.52,1.46.53.73.69,1.57.48,2.54-.22,1.02-.71,1.74-1.46,2.15-.75.41-1.72.49-2.91.24l-2.48-.54ZM94.47,136.56l2.48.54c.74.16,1.35.11,1.82-.15.47-.26.78-.73.92-1.39.13-.62.04-1.17-.27-1.63-.31-.46-.81-.77-1.5-.94l-2.57-.55-.89,4.12Z"/>
        <path class="cls-16" d="M105.88,144.5c-.04-.17-.05-.46-.01-.86-.76.51-1.57.67-2.43.48-.77-.16-1.35-.52-1.75-1.06-.4-.54-.53-1.14-.38-1.81.18-.81.62-1.38,1.33-1.7.71-.32,1.63-.36,2.75-.12l1.3.28.13-.61c.1-.47.04-.87-.18-1.21-.22-.34-.6-.57-1.15-.69-.47-.1-.9-.07-1.27.1-.37.17-.59.43-.66.77l-1.35-.29c.08-.39.3-.73.65-1.04.35-.31.79-.51,1.31-.62.52-.11,1.07-.1,1.63.02.9.19,1.56.57,1.97,1.12s.54,1.23.4,2.03l-.77,3.59c-.15.71-.19,1.3-.09,1.77l-.03.11-1.4-.3ZM103.88,143c.42.09.84.07,1.26-.07.42-.14.76-.36,1-.67l.35-1.6-1.05-.23c-1.63-.35-2.55-.05-2.76.9-.09.42-.02.78.21,1.08.23.3.56.49.99.58Z"/>
        <path class="cls-16" d="M114.29,139.39c-.2-.07-.41-.14-.64-.19-.88-.19-1.55.06-2.02.74l-1.19,5.54-1.33-.29,1.68-7.8,1.3.28-.17.91c.58-.6,1.28-.82,2.08-.65.26.06.46.14.58.23l-.27,1.24Z"/>
        <path class="cls-16" d="M118,136.96l-.41,1.89,1.45.31-.22,1.03-1.45-.31-1.04,4.84c-.07.31-.06.56.04.74.1.19.3.31.61.38.15.03.37.05.65.05l-.23,1.08c-.37.02-.73,0-1.06-.08-.6-.13-1.01-.4-1.24-.83-.22-.43-.26-.97-.12-1.63l1.04-4.84-1.42-.3.22-1.03,1.42.3.41-1.89,1.34.29Z"/>
        <path class="cls-16" d="M120.37,147.6l-1.33-.28,1.68-7.8,1.33.28-1.68,7.8ZM121.05,137.42c.05-.22.15-.39.32-.51.16-.12.38-.15.63-.1.26.06.44.17.54.35.11.18.14.37.09.59-.05.22-.15.38-.32.5-.16.11-.38.14-.63.09-.26-.05-.44-.17-.54-.34-.1-.18-.13-.37-.09-.58Z"/>
        <path class="cls-16" d="M125.84,147.79c.48.1.92.05,1.34-.16.42-.21.69-.53.82-.96l1.26.27c-.12.44-.37.83-.74,1.18-.37.35-.81.59-1.34.72-.53.14-1.05.15-1.58.04-1.06-.23-1.83-.76-2.3-1.6-.47-.85-.58-1.88-.32-3.11l.05-.22c.16-.76.44-1.4.85-1.93.4-.53.9-.91,1.49-1.12.59-.22,1.24-.25,1.96-.1.88.19,1.55.61,2.01,1.26.46.65.63,1.39.49,2.24l-1.26-.27c.07-.51-.03-.97-.31-1.37-.28-.4-.66-.66-1.16-.77-.68-.14-1.26-.01-1.74.4-.48.41-.81,1.08-1.01,2l-.06.25c-.19.9-.16,1.63.11,2.2.27.56.74.92,1.43,1.07Z"/>
        <path class="cls-16" d="M131.69,150.03l-1.33-.28,1.68-7.8,1.33.28-1.68,7.8ZM132.37,139.85c.05-.22.15-.39.32-.51.16-.12.38-.15.63-.1.26.06.44.17.54.35.11.18.14.37.09.59-.05.22-.15.38-.32.5-.16.11-.38.14-.63.09-.26-.05-.44-.17-.54-.34-.1-.18-.13-.37-.09-.58Z"/>
        <path class="cls-16" d="M141.23,148.09c-.26,1.19-.73,2.08-1.43,2.7-.7.61-1.51.82-2.44.62-.95-.2-1.63-.66-2.05-1.38l-.8,3.76-1.33-.29,2.32-10.8,1.22.26-.12.88c.69-.56,1.51-.73,2.48-.52.94.2,1.61.71,2,1.54s.45,1.87.18,3.12l-.03.12ZM139.93,147.66c.19-.88.15-1.62-.12-2.21-.27-.59-.72-.96-1.37-1.1-.81-.17-1.49.06-2.05.69l-.8,3.73c.24.8.78,1.28,1.6,1.46.64.14,1.2,0,1.69-.43.49-.43.84-1.14,1.05-2.14Z"/>
        <path class="cls-16" d="M146.93,153.31c-.04-.17-.05-.46-.01-.86-.76.51-1.57.67-2.43.48-.77-.16-1.35-.52-1.75-1.06-.4-.54-.53-1.14-.38-1.81.18-.81.62-1.38,1.33-1.7.71-.32,1.63-.36,2.75-.12l1.3.28.13-.61c.1-.47.04-.87-.18-1.21-.22-.34-.6-.57-1.15-.69-.47-.1-.9-.07-1.27.1-.37.17-.59.43-.66.77l-1.35-.29c.08-.39.3-.73.65-1.04.35-.31.79-.51,1.31-.62.52-.11,1.07-.1,1.63.02.9.19,1.56.57,1.97,1.12s.54,1.23.4,2.03l-.77,3.59c-.15.71-.19,1.3-.09,1.77l-.03.11-1.4-.3ZM144.93,151.81c.42.09.84.07,1.26-.07.42-.14.76-.36,1-.67l.35-1.6-1.05-.23c-1.63-.35-2.55-.05-2.76.9-.09.42-.02.78.21,1.08.23.3.56.49.99.58Z"/>
        <path class="cls-16" d="M154.05,144.7l-.41,1.89,1.45.31-.22,1.03-1.45-.31-1.04,4.84c-.07.31-.06.56.04.74.1.19.3.31.61.38.15.03.37.05.65.05l-.23,1.08c-.37.02-.73,0-1.06-.08-.6-.13-1.01-.4-1.24-.83-.22-.43-.26-.97-.12-1.63l1.04-4.84-1.42-.3.22-1.03,1.42.3.41-1.89,1.34.29Z"/>
        <path class="cls-16" d="M156.42,155.34l-1.33-.28,1.68-7.8,1.33.28-1.68,7.8ZM157.1,145.16c.05-.22.15-.39.32-.51.16-.12.38-.15.63-.1.26.06.44.17.54.35.11.18.14.37.09.59-.05.22-.15.38-.32.5-.16.11-.38.14-.63.09-.26-.05-.44-.17-.54-.34-.1-.18-.13-.37-.09-.58Z"/>
        <path class="cls-16" d="M159.06,151.75c.16-.76.46-1.42.89-1.96s.95-.93,1.56-1.14c.61-.22,1.26-.25,1.94-.1,1.06.23,1.84.78,2.34,1.65.5.88.62,1.93.36,3.14l-.02.1c-.16.76-.46,1.41-.88,1.95-.42.54-.94.92-1.55,1.14-.61.22-1.27.25-1.97.1-1.06-.23-1.84-.78-2.33-1.65-.5-.88-.62-1.92-.36-3.13l.02-.09ZM160.36,152.2c-.19.87-.13,1.61.15,2.22.29.61.77.98,1.44,1.13.68.15,1.28,0,1.79-.45.52-.45.88-1.15,1.08-2.1.18-.86.12-1.59-.17-2.21-.29-.62-.78-1.01-1.45-1.15-.66-.14-1.24,0-1.76.44-.52.44-.88,1.14-1.09,2.12Z"/>
        <path class="cls-16" d="M169.92,150.08l-.17.98c.76-.62,1.62-.82,2.58-.62,1.65.35,2.28,1.46,1.9,3.33l-1.11,5.15-1.33-.29,1.11-5.16c.11-.56.07-1-.12-1.32-.19-.33-.56-.55-1.09-.66-.43-.09-.84-.06-1.22.1-.37.16-.69.41-.96.75l-1.19,5.56-1.33-.29,1.68-7.8,1.26.27Z"/>
      </g>
      <g>
        <path class="cls-16" d="M183.37,156.52l.04,1.43.45-1.23,2.96-7.21,1.19.14,1.21,7.68.14,1.32.39-1.41,2.49-7.11,1.42.16-3.81,10.38-1.28-.15-1.31-8.02-.07-.83-.26.79-3.16,7.51-1.29-.15-1.36-10.97,1.41.16.85,7.5Z"/>
        <path class="cls-16" d="M194.04,156.8c-.01-.77.12-1.47.42-2.09.3-.62.71-1.11,1.25-1.45.54-.34,1.15-.52,1.85-.53,1.07-.02,1.95.34,2.62,1.07.67.73,1.02,1.71,1.04,2.95v.1c.01.77-.12,1.46-.41,2.07-.28.61-.7,1.1-1.24,1.45-.54.35-1.16.53-1.87.54-1.07.02-1.94-.34-2.62-1.07-.67-.73-1.02-1.71-1.04-2.94v-.1ZM195.35,156.95c.01.89.23,1.6.65,2.12.42.53.97.79,1.66.78.69-.01,1.24-.29,1.64-.84.4-.55.59-1.32.58-2.3-.01-.87-.23-1.58-.66-2.11-.42-.54-.98-.8-1.66-.79-.67.01-1.21.29-1.62.83-.41.54-.6,1.31-.59,2.31Z"/>
        <path class="cls-16" d="M206.58,153.46c-.21-.02-.44-.01-.68.01-.89.09-1.46.52-1.71,1.31l.55,5.64-1.36.13-.77-7.95,1.32-.13.11.92c.37-.75.97-1.17,1.79-1.25.27-.02.47,0,.62.05l.12,1.26Z"/>
        <path class="cls-16" d="M210.38,155.97l-.7,1.02.48,2.76-1.35.24-1.93-11.16,1.35-.24,1.17,6.75.57-.99,2-3.01,1.63-.28-2.49,3.81,4.21,3.99-1.58.27-3.37-3.16Z"/>
        <path class="cls-16" d="M220.68,155.25c-.09-.35-.3-.59-.62-.72-.32-.13-.83-.17-1.54-.13-.7.03-1.28,0-1.73-.09-.45-.09-.8-.25-1.06-.47-.26-.23-.44-.53-.54-.91-.17-.63-.05-1.24.37-1.82.41-.58,1.04-.98,1.87-1.2.88-.24,1.65-.2,2.31.1.67.31,1.09.81,1.28,1.51l-1.32.36c-.1-.36-.34-.63-.72-.81-.37-.18-.8-.2-1.26-.08-.48.13-.82.33-1.04.61-.21.28-.28.59-.19.93.09.32.28.52.57.62.3.09.79.13,1.49.1.7-.03,1.28,0,1.74.1.46.09.83.26,1.1.49.27.23.47.56.58.97.18.69.05,1.31-.38,1.88-.44.56-1.1.96-1.97,1.2-.62.17-1.2.21-1.73.12-.53-.09-.99-.3-1.36-.62-.37-.32-.62-.71-.75-1.17l1.32-.36c.14.44.41.75.81.92.4.17.87.18,1.42.03.5-.13.87-.34,1.11-.62.25-.28.32-.59.23-.93Z"/>
        <path class="cls-16" d="M223.48,149.22c.31-.91.92-1.53,1.82-1.87,1.58-.59,2.71,0,3.39,1.79l1.85,4.94-1.28.48-1.85-4.95c-.21-.54-.48-.89-.82-1.06-.34-.17-.76-.16-1.27.03-.42.15-.74.4-.97.74-.23.34-.36.72-.4,1.14l1.98,5.32-1.28.48-3.96-10.61,1.28-.48,1.51,4.04Z"/>
        <path class="cls-16" d="M230.72,149.6c-.34-.7-.52-1.4-.52-2.1s.17-1.32.52-1.86c.34-.55.83-.97,1.46-1.28.97-.48,1.93-.53,2.86-.15.93.38,1.68,1.13,2.23,2.25l.04.09c.34.69.52,1.39.52,2.07,0,.68-.16,1.3-.51,1.86-.34.55-.84.99-1.48,1.3-.97.48-1.92.53-2.86.15-.94-.38-1.68-1.12-2.22-2.24l-.05-.09ZM232.01,149.15c.39.79.89,1.34,1.49,1.64.61.3,1.22.3,1.84-.01.62-.31,1-.79,1.12-1.46.12-.67-.03-1.44-.46-2.32-.39-.78-.89-1.33-1.5-1.63-.61-.31-1.23-.31-1.84,0-.61.3-.97.78-1.11,1.44-.14.66.01,1.45.45,2.35Z"/>
        <path class="cls-16" d="M244.58,142.1c.64,1.03.92,2.01.84,2.93-.08.93-.52,1.64-1.32,2.14-.82.51-1.63.65-2.43.43l2.03,3.26-1.16.72-5.84-9.38,1.06-.66.53.72c.11-.88.58-1.57,1.42-2.1.82-.51,1.65-.6,2.51-.28.86.32,1.62,1.03,2.3,2.12l.07.1ZM243.34,142.69c-.48-.76-1.02-1.26-1.62-1.5-.6-.24-1.19-.19-1.75.16-.7.44-1.03,1.08-.99,1.92l2.02,3.24c.73.4,1.45.38,2.17-.06.55-.35.86-.84.91-1.48.05-.65-.19-1.4-.73-2.27Z"/>
      </g>
      <path class="cls-16" d="M148.09,48.1c.74-.15,1.39-.56,1.84-1.13.41-.51.67-1.15.71-1.85,0-.06,0-.11,0-.17,0-.66-.2-1.27-.54-1.78-.58-.86-1.56-1.44-2.68-1.44-1.77,0-3.22,1.44-3.22,3.22s1.44,3.22,3.22,3.22c.23,0,.44-.02.66-.07"/>
      <path class="cls-16" d="M149.5,50.47h-4.02c-2.43,0-4.4,1.97-4.4,4.4v1.6c1.91,1.29,4.12,1.97,6.43,1.97s4.52-.67,6.43-1.95v-1.61c0-2.43-1.97-4.4-4.38-4.4"/>
      <path class="cls-16" d="M183.07,25.53c0-6.58-5.45-11.88-12.08-11.63-6.11.23-11.06,5.27-11.19,11.38-.06,2.66.79,5.13,2.24,7.11l-6.64,5.97c-2.25-2.14-5.36-3.39-8.75-3.19-5.85.36-10.58,5.13-10.89,10.98-.18,3.45,1.14,6.58,3.36,8.83v-.08c0-3.03,2.18-5.56,5.05-6.11-1.32-1.11-2.06-2.88-1.71-4.79.37-2.04,2.01-3.66,4.05-4.02s3.85.5,4.94,1.96c.37.5.66,1.08.82,1.7.11.42.18.85.18,1.31,0,1.04-.32,2.01-.86,2.81-.26.39-.58.74-.94,1.04,1.5.29,2.81,1.12,3.72,2.28.83,1.06,1.33,2.38,1.33,3.83v.09c.72-.72,1.33-1.54,1.84-2.42l6.43,3.03c-.27.8-.42,1.65-.42,2.53,0,2.17.88,4.14,2.29,5.57h0c0-2.09,1.49-3.82,3.46-4.2-.59-.5-1.01-1.18-1.16-1.97-.04-.22-.07-.45-.07-.68,0-.44.09-.87.24-1.26.59-1.5,2.19-2.49,3.96-2.12,1.28.27,2.32,1.28,2.62,2.55.32,1.38-.19,2.67-1.14,3.47,1.97.38,3.46,2.11,3.46,4.19v-.02c1.53-1.54,2.43-3.72,2.28-6.1-.25-3.89-3.38-7.05-7.26-7.35-3.1-.24-5.85,1.31-7.34,3.72l-6.42-3.03c.49-1.28.75-2.67.75-4.12,0-2.66-.9-5.11-2.4-7.07l6.54-5.89v-.32c0-1.03.26-2,.71-2.85.68-1.28,1.8-2.29,3.16-2.84.35-.14.72-.25,1.11-.33-.13-.11-.25-.22-.37-.34-.87-.89-1.4-2.11-1.4-3.44,0-2.61,2.08-4.82,4.68-4.96,2.86-.16,5.24,2.13,5.24,4.95,0,1.52-.69,2.88-1.77,3.79,2.83.54,4.97,3.03,4.97,6.02v.2c2.08-2.1,3.37-5,3.37-8.19"/>
      <path class="cls-16" d="M171.49,26.9c1.77,0,3.22-1.44,3.22-3.22s-1.44-3.22-3.22-3.22-3.22,1.44-3.22,3.22c0,.89.37,1.7.96,2.29.46.45,1.06.77,1.72.88.18.03.35.05.54.05"/>
      <path class="cls-16" d="M165.47,31.81c-.24.54-.38,1.14-.38,1.78v1.6c1.91,1.29,4.12,1.97,6.43,1.97s4.52-.67,6.43-1.95v-1.61c0-2.43-1.97-4.4-4.4-4.4h-4.09c-.47,0-.91.07-1.34.21-1.19.38-2.16,1.27-2.67,2.41"/>
      <path class="cls-16" d="M173.68,56.88c0-1.21-.98-2.19-2.19-2.19-.96,0-1.76.62-2.06,1.48-.08.23-.13.46-.13.72,0,.58.23,1.11.61,1.51.4.42.96.69,1.58.69,1.21,0,2.19-.98,2.19-2.19"/>
      <g>
        <rect class="cls-16" x="167.07" y="60.37" width="9.15" height="5.69"/>
        <g class="cls-17">
          <path class="cls-16" d="M173.01,60.61h-2.94c-1.65,0-2.99,1.34-2.99,2.99v1.09c1.32.88,2.85,1.34,4.45,1.34s3.13-.46,4.45-1.33v-1.1c0-1.65-1.36-2.99-3.03-2.99"/>
        </g>
      </g>
      <g>
        <path class="cls-16" d="M12.68,147.33l-2.68-10.4,3.4-.88c1.13-.29,2.03-.28,2.72.05.69.32,1.15.94,1.39,1.85.12.49.09.95-.09,1.4-.18.44-.48.83-.9,1.16.6.01,1.12.19,1.56.55.44.36.74.84.9,1.45.24.93.13,1.74-.34,2.43-.46.69-1.25,1.17-2.36,1.46l-3.61.93ZM12.8,142.1l.96,3.74,2.26-.58c.64-.16,1.1-.46,1.38-.89.28-.43.35-.93.21-1.51-.32-1.25-1.16-1.71-2.53-1.36l-2.28.59ZM12.52,141.01l2.07-.54c.6-.15,1.04-.43,1.32-.81.28-.39.36-.85.22-1.37-.15-.57-.42-.94-.82-1.12-.4-.18-.94-.17-1.62,0l-2.03.52.86,3.31Z"/>
        <path class="cls-16" d="M23.76,137.71c-.21.01-.43.04-.66.09-.88.2-1.39.7-1.54,1.52l1.22,5.53-1.33.29-1.72-7.8,1.3-.29.22.9c.28-.79.82-1.27,1.62-1.45.26-.06.47-.07.62-.03l.27,1.24Z"/>
        <path class="cls-16" d="M25.19,140.14c-.14-.77-.12-1.48.07-2.15.19-.67.52-1.22.99-1.65.48-.43,1.06-.71,1.76-.85,1.07-.2,2,.01,2.8.63.8.62,1.31,1.54,1.54,2.76l.02.1c.14.76.12,1.48-.06,2.14-.18.66-.51,1.21-.99,1.65-.48.44-1.07.73-1.78.86-1.07.2-2-.01-2.79-.63-.8-.62-1.31-1.54-1.54-2.76l-.02-.1ZM26.57,140.05c.16.87.5,1.53,1,1.98.5.45,1.09.62,1.77.49.68-.13,1.17-.49,1.47-1.1.3-.61.36-1.4.18-2.37-.16-.86-.49-1.51-1-1.97-.51-.46-1.1-.63-1.77-.51-.66.12-1.15.49-1.46,1.09-.31.6-.37,1.39-.19,2.38Z"/>
        <path class="cls-16" d="M39.47,141.86c-.1-.14-.21-.41-.31-.8-.53.74-1.24,1.18-2.11,1.3-.78.11-1.45-.01-2.02-.38-.56-.37-.89-.89-.98-1.57-.12-.82.1-1.51.66-2.05.56-.55,1.4-.9,2.54-1.07l1.31-.19-.09-.62c-.07-.47-.27-.83-.59-1.07-.32-.24-.76-.32-1.3-.24-.48.07-.87.26-1.16.55-.29.29-.41.61-.36.95l-1.36.2c-.06-.39.03-.8.25-1.2.23-.41.56-.76,1.01-1.04.45-.28.96-.47,1.54-.55.91-.13,1.66,0,2.24.38.58.38.94.96,1.08,1.76l.53,3.64c.11.73.28,1.29.53,1.69l.02.12-1.42.2ZM37.08,141.15c.42-.06.81-.23,1.15-.51.35-.27.58-.6.7-.97l-.24-1.61-1.06.15c-1.65.24-2.41.84-2.27,1.81.06.43.25.74.57.93.32.2.7.26,1.14.2Z"/>
        <path class="cls-16" d="M41.8,137.45c-.13-1.22.06-2.22.56-3.03.5-.8,1.22-1.25,2.15-1.35.93-.1,1.7.14,2.31.72l-.43-4.13,1.36-.14,1.17,11.27-1.25.13-.15-.85c-.47.73-1.2,1.14-2.16,1.24-.92.1-1.71-.2-2.37-.9-.66-.69-1.05-1.65-1.17-2.86v-.1ZM43.18,137.46c.09.9.35,1.59.77,2.06.43.47.97.67,1.62.6.86-.09,1.45-.54,1.76-1.36l-.38-3.64c-.49-.7-1.15-1.01-1.99-.93-.67.07-1.16.38-1.48.93-.32.55-.42,1.33-.31,2.34Z"/>
        <path class="cls-16" d="M54.16,140.57c-1.08.07-1.98-.23-2.71-.89-.72-.67-1.12-1.59-1.2-2.78l-.02-.25c-.05-.79.06-1.51.32-2.14.26-.64.65-1.16,1.17-1.54.52-.39,1.1-.6,1.73-.64,1.04-.06,1.86.23,2.48.87.62.65.97,1.61,1.05,2.88l.04.57-5.4.35c.07.78.34,1.4.81,1.86.47.45,1.04.66,1.72.61.48-.03.89-.15,1.21-.37.32-.22.6-.49.82-.83l.88.6c-.61,1.07-1.57,1.64-2.91,1.73ZM53.54,133.43c-.55.04-.99.27-1.35.69-.35.42-.54,1-.58,1.73l3.99-.25v-.1c-.09-.69-.31-1.22-.68-1.58-.36-.36-.82-.52-1.39-.48Z"/>
        <path class="cls-16" d="M59.76,132.15l.07,1.01c.59-.78,1.38-1.19,2.36-1.21,1.69-.04,2.56.89,2.62,2.79l.13,5.27-1.36.04-.13-5.28c-.02-.57-.16-.99-.43-1.26-.27-.27-.67-.4-1.22-.39-.44.01-.83.14-1.16.39-.33.24-.58.56-.76.95l.14,5.69-1.37.03-.2-7.98,1.29-.03Z"/>
        <path class="cls-16" d="M68.32,140.03h-1.45s.04-7.92.04-7.92h1.45s-.04,7.92-.04,7.92ZM66.92,129.93c0-.22.07-.41.2-.56.14-.15.34-.22.6-.22.26,0,.47.08.6.23.14.15.2.34.2.56,0,.22-.07.4-.21.55-.14.15-.34.22-.6.22-.27,0-.47-.08-.6-.23-.13-.15-.2-.33-.2-.55Z"/>
        <path class="cls-16" d="M72.07,132.1v1.01c.64-.74,1.45-1.1,2.43-1.07,1.69.06,2.51,1.03,2.46,2.94l-.18,5.27-1.36-.05.18-5.28c.01-.57-.11-1-.36-1.28-.25-.28-.64-.44-1.19-.45-.44-.01-.84.09-1.18.31-.34.22-.61.52-.81.9l-.19,5.68-1.37-.04.27-7.98,1.29.04Z"/>
        <path class="cls-16" d="M78.52,136.27c.09-1.24.45-2.21,1.08-2.9.63-.69,1.41-1,2.36-.93.97.07,1.71.47,2.2,1.2l.13-.88,1.24.09-.57,7.77c-.08,1.03-.44,1.82-1.1,2.37-.65.55-1.49.79-2.52.71-.58-.04-1.13-.2-1.66-.49-.53-.29-.93-.65-1.19-1.1l.77-.76c.53.77,1.22,1.18,2.06,1.24.66.05,1.19-.1,1.59-.45.4-.34.62-.85.68-1.53l.05-.69c-.59.59-1.36.85-2.29.78-.93-.07-1.66-.5-2.18-1.29-.52-.79-.74-1.84-.64-3.13ZM79.89,136.53c-.07.9.06,1.62.39,2.16.33.54.83.83,1.49.88.86.06,1.52-.28,1.98-1.04l.27-3.63c-.36-.79-.95-1.21-1.79-1.27-.66-.05-1.2.17-1.61.66-.41.48-.65,1.23-.72,2.24Z"/>
      </g>
      <g>
        <path class="cls-16" d="M139.87,13.89c-2.25,0-4.08,1.83-4.08,4.08s1.83,4.08,4.08,4.08,4.08-1.83,4.08-4.08-1.83-4.08-4.08-4.08Z"/>
        <g class="cls-8">
          <g>
            <rect class="cls-16" x="135.9" y="13.85" width="8.16" height="8.16"/>
            <g class="cls-14">
              <g>
                <path class="cls-16" d="M139.87,13.89c-2.25,0-4.08,1.83-4.08,4.08s1.83,4.08,4.08,4.08,4.08-1.83,4.08-4.08-1.83-4.08-4.08-4.08Z"/>
                <g class="cls-11">
                  <path class="cls-16" d="M135.9,13.85h8.16v8.16h-8.16v-8.16Z"/>
                </g>
              </g>
            </g>
          </g>
        </g>
      </g>
      <g>
        <circle class="cls-16" cx="193.34" cy="44.06" r="4.08"/>
        <g class="cls-4">
          <g>
            <rect class="cls-16" x="189.09" y="40.08" width="8.66" height="8.16"/>
            <g class="cls-9">
              <g>
                <rect class="cls-16" x="189.34" y="40.08" width="8.16" height="8.16"/>
                <g class="cls-1">
                  <g>
                    <circle class="cls-16" cx="193.34" cy="44.06" r="4.08" transform="translate(-4.84 37.36) rotate(-10.9)"/>
                    <g class="cls-2">
                      <path class="cls-16" d="M189.34,40.08h8.16v8.16h-8.16v-8.16Z"/>
                    </g>
                  </g>
                </g>
              </g>
            </g>
          </g>
        </g>
      </g>
      <g>
        <circle class="cls-16" cx="117.22" cy="7.91" r="7.65" transform="translate(5.9 45.46) rotate(-22.5)"/>
        <g class="cls-10">
          <g>
            <rect class="cls-16" x="109.42" width="15.59" height="15.83"/>
            <g class="cls-5">
              <g>
                <rect class="cls-16" x="109.67" y=".25" width="15.34" height="15.34"/>
                <g class="cls-6">
                  <g>
                    <circle class="cls-16" cx="117.22" cy="7.91" r="7.65" transform="translate(.62 22.31) rotate(-10.9)"/>
                    <g class="cls-7">
                      <path class="cls-16" d="M109.67.25h15.34v15.34h-15.34V.25Z"/>
                    </g>
                  </g>
                </g>
              </g>
            </g>
          </g>
        </g>
      </g>
      <g>
        <circle class="cls-16" cx="201.5" cy="21.54" r="7.65" transform="translate(-.44 38.49) rotate(-10.9)"/>
        <g class="cls-12">
          <g>
            <rect class="cls-16" x="193.54" y="13.61" width="15.59" height="15.83"/>
            <g class="cls-15">
              <g>
                <rect class="cls-16" x="193.79" y="13.85" width="15.34" height="15.34"/>
                <g class="cls-13">
                  <g>
                    <circle class="cls-16" cx="201.5" cy="21.54" r="7.65" transform="translate(7.09 78.75) rotate(-22.5)"/>
                    <g class="cls-3">
                      <path class="cls-16" d="M193.79,13.85h15.34v15.34h-15.34v-15.34Z"/>
                    </g>
                  </g>
                </g>
              </g>
            </g>
          </g>
        </g>
      </g>
    </g>
    <g>
      <g>
        <path class="cls-16" d="M16.22,187h9.1c2.13,0,3.75.17,4.83.51,1.09.34,2,1.08,2.73,2.23.74,1.15,1.1,2.57,1.1,4.28,0,2.98-1.27,4.9-3.81,5.74,3.02,1.07,4.53,3.25,4.53,6.54,0,1.73-.41,3.19-1.23,4.38s-1.83,1.99-3.04,2.38c-1.21.4-2.91.6-5.13.6h-9.1v-26.66ZM21.84,197.76h1.89c1.89,0,3.08-.34,3.56-1.02s.73-1.45.73-2.32c0-.81-.24-1.53-.73-2.16s-1.53-.95-3.13-.95h-2.32v6.45ZM21.84,209.09h2.87c2.7,0,4.04-1.16,4.04-3.49,0-1.29-.34-2.2-1.01-2.73-.67-.53-1.68-.79-3.04-.79h-2.87v7.01Z"/>
        <path class="cls-16" d="M38.7,187h7.68c2.33,0,4.14.2,5.42.59,1.28.39,2.36,1.27,3.23,2.65.87,1.37,1.31,3.08,1.31,5.11s-.35,3.57-1.05,4.84-1.68,2.2-2.92,2.76c-1.24.57-3.15.85-5.73.85h-2.07v9.86h-5.86v-26.66ZM44.56,191.31v7.91h1.82c1.6,0,2.63-.37,3.1-1.12.46-.74.69-1.71.69-2.9,0-1-.18-1.82-.54-2.44-.36-.62-.78-1.02-1.25-1.19-.48-.18-1.14-.26-2-.26h-1.82Z"/>
        <path class="cls-16" d="M72.12,203.95l5.41.33c-.2,2.89-1.11,5.24-2.75,7.06s-3.81,2.72-6.5,2.72c-3.28,0-5.78-1.22-7.5-3.65s-2.58-5.79-2.58-10.06.85-7.68,2.56-10.12c1.71-2.43,4.24-3.65,7.6-3.65,5.56,0,8.59,3.44,9.08,10.31l-5.35.39c-.14-3.96-1.38-5.94-3.71-5.94-1.22,0-2.2.64-2.92,1.91s-1.08,3.75-1.08,7.42c0,3.28.33,5.54,1,6.77s1.66,1.85,2.99,1.85c2.13,0,3.39-1.78,3.77-5.35Z"/>
        <path class="cls-16" d="M85.69,187h5.99l2.8,18.44,3.49-18.44h5.37l3.29,18.54,3.26-18.54h4.93l-5.72,26.8h-5.25l-3.55-18.54-3.63,18.54h-5.2l-5.78-26.8Z"/>
        <path class="cls-16" d="M135.44,200.32c0,9.17-3.22,13.75-9.67,13.75-3.2,0-5.62-1.17-7.25-3.51-1.63-2.34-2.44-5.75-2.44-10.24,0-9.15,3.22-13.73,9.67-13.73,3.15,0,5.55,1.15,7.21,3.44,1.65,2.29,2.48,5.72,2.48,10.29ZM129.26,200.32c0-3.59-.28-5.99-.84-7.18-.56-1.19-1.45-1.79-2.68-1.79s-2.1.6-2.66,1.8c-.56,1.2-.84,3.59-.84,7.17s.28,5.89.83,7.13c.55,1.24,1.44,1.86,2.67,1.86s2.1-.59,2.67-1.78.85-3.59.85-7.21Z"/>
        <path class="cls-16" d="M139.52,187h8.38c1.63,0,2.87.08,3.74.22.87.15,1.74.55,2.63,1.21.88.66,1.58,1.56,2.08,2.7.5,1.14.75,2.42.75,3.84,0,3.33-1.25,5.68-3.75,7.03l4.9,11.66h-6.38l-3.57-10.55h-2.93v10.55h-5.86v-26.66ZM145.38,191.31v7.48h2.58c2.29,0,3.44-1.28,3.44-3.85,0-.89-.17-1.61-.51-2.18-.34-.57-.73-.95-1.18-1.15s-1.11-.3-1.98-.3h-2.34Z"/>
        <path class="cls-16" d="M161.31,187h5.86v11.12l6.48-11.12h5.93l-6.7,9.8,7.26,16.86h-6.06l-4.69-12.27-2.22,3.21v9.06h-5.86v-26.66Z"/>
        <path class="cls-16" d="M198.74,192.8l-4.84,1.86c-.69-2.2-1.95-3.3-3.79-3.3-.86,0-1.54.24-2.04.73-.5.49-.75,1.06-.75,1.71,0,.75.3,1.36.89,1.81.59.45,1.83,1.04,3.72,1.77,1.72.64,3.07,1.27,4.05,1.89.98.62,1.78,1.47,2.38,2.55s.91,2.32.91,3.74c0,2.49-.86,4.53-2.57,6.12-1.71,1.59-4.01,2.39-6.88,2.39-4.83,0-7.92-2.44-9.26-7.32l5.12-1.46c.62,2.68,2.05,4.02,4.28,4.02,1.02,0,1.84-.26,2.47-.79.63-.53.95-1.22.95-2.08,0-.65-.22-1.23-.66-1.75-.44-.51-1.46-1.06-3.05-1.63-2.04-.73-3.57-1.39-4.57-1.98-1-.59-1.83-1.44-2.48-2.54-.65-1.1-.98-2.35-.98-3.76,0-2.4.77-4.36,2.31-5.89s3.58-2.29,6.12-2.29c4.63,0,7.53,2.07,8.67,6.21Z"/>
        <path class="cls-16" d="M202.88,187h5.86v10.76h6.41v-10.76h5.86v26.66h-5.86v-10.9h-6.41v10.9h-5.86v-26.66Z"/>
        <path class="cls-16" d="M244.44,200.32c0,9.17-3.22,13.75-9.67,13.75-3.2,0-5.62-1.17-7.25-3.51-1.63-2.34-2.44-5.75-2.44-10.24,0-9.15,3.22-13.73,9.67-13.73,3.15,0,5.55,1.15,7.21,3.44,1.65,2.29,2.48,5.72,2.48,10.29ZM238.27,200.32c0-3.59-.28-5.99-.84-7.18-.56-1.19-1.45-1.79-2.68-1.79s-2.1.6-2.66,1.8c-.56,1.2-.84,3.59-.84,7.17s.28,5.89.83,7.13c.55,1.24,1.44,1.86,2.67,1.86s2.1-.59,2.67-1.78.85-3.59.85-7.21Z"/>
        <path class="cls-16" d="M248.52,187h7.68c2.33,0,4.14.2,5.42.59,1.28.39,2.36,1.27,3.23,2.65.87,1.37,1.31,3.08,1.31,5.11s-.35,3.57-1.05,4.84-1.68,2.2-2.92,2.76c-1.24.57-3.15.85-5.73.85h-2.07v9.86h-5.86v-26.66ZM254.38,191.31v7.91h1.82c1.6,0,2.63-.37,3.1-1.12.46-.74.69-1.71.69-2.9,0-1-.18-1.82-.54-2.44-.36-.62-.78-1.02-1.25-1.19-.48-.18-1.14-.26-2-.26h-1.82Z"/>
        <path class="cls-16" d="M276.43,187h7.68c2.33,0,4.14.2,5.42.59s2.36,1.27,3.23,2.65,1.31,3.08,1.31,5.11-.35,3.57-1.05,4.84-1.68,2.2-2.92,2.76-3.15.85-5.73.85h-2.07v9.86h-5.86v-26.66ZM282.29,191.31v7.91h1.82c1.6,0,2.63-.37,3.1-1.12s.69-1.71.69-2.9c0-1-.18-1.82-.54-2.44s-.77-1.02-1.25-1.19c-.48-.18-1.14-.26-2-.26h-1.82Z"/>
        <path class="cls-16" d="M296.88,187h5.86v15.23c0,2.15.1,3.65.29,4.49s.6,1.49,1.22,1.92,1.38.65,2.28.65c.98,0,1.75-.24,2.32-.72s.92-1.12,1.05-1.91.2-2.27.2-4.43v-15.23h4.9v15c0,3-.17,5.23-.52,6.7s-1.22,2.73-2.64,3.79-3.36,1.58-5.83,1.58c-2.32,0-4.14-.39-5.47-1.16s-2.27-1.86-2.83-3.26-.84-3.87-.84-7.41v-15.23Z"/>
        <path class="cls-16" d="M333.01,203.95l5.41.33c-.2,2.89-1.11,5.24-2.75,7.06s-3.81,2.72-6.5,2.72c-3.28,0-5.78-1.22-7.5-3.65s-2.58-5.79-2.58-10.06.85-7.68,2.56-10.12,4.24-3.65,7.6-3.65c5.56,0,8.59,3.44,9.08,10.31l-5.35.39c-.14-3.96-1.38-5.94-3.71-5.94-1.22,0-2.2.64-2.92,1.91s-1.08,3.75-1.08,7.42c0,3.28.33,5.54,1,6.77s1.66,1.85,2.99,1.85c2.14,0,3.39-1.78,3.77-5.35Z"/>
        <path class="cls-16" d="M341.86,187h7.68c2.33,0,4.14.2,5.42.59s2.36,1.27,3.23,2.65,1.31,3.08,1.31,5.11-.35,3.57-1.05,4.84-1.68,2.2-2.92,2.76-3.15.85-5.73.85h-2.07v9.86h-5.86v-26.66ZM347.72,191.31v7.91h1.82c1.6,0,2.63-.37,3.1-1.12s.69-1.71.69-2.9c0-1-.18-1.82-.54-2.44s-.77-1.02-1.25-1.19c-.48-.18-1.14-.26-2-.26h-1.82Z"/>
        <path class="cls-16" d="M392.15,187h5.86v21.66h8.59v5h-14.45v-26.66Z"/>
        <path class="cls-16" d="M409.19,187h5.86v26.66h-5.86v-26.66Z"/>
        <path class="cls-16" d="M420.08,187h8.59l3.77,16.46,4.24-16.46h8.34v26.66h-5.49v-22.32l-5.45,22.32h-4.26l-4.98-22.32v22.32h-4.77v-26.66Z"/>
        <path class="cls-16" d="M454.77,187h5.9l7.62,26.66h-5.99l-1.33-5.51h-7.51l-1.31,5.51h-5.38l8.01-26.66ZM459.86,203.58l-2.69-10.92-2.58,10.92h5.28Z"/>
        <path class="cls-16" d="M471.29,207.76h5.45v5.37l-3.3,6.84h-2.15l2.56-6.31h-2.56v-5.9Z"/>
        <path class="cls-16" d="M489.11,187h7.68c2.33,0,4.14.2,5.42.59s2.36,1.27,3.23,2.65,1.31,3.08,1.31,5.11-.35,3.57-1.05,4.84-1.68,2.2-2.92,2.76-3.15.85-5.73.85h-2.07v9.86h-5.86v-26.66ZM494.97,191.31v7.91h1.82c1.6,0,2.63-.37,3.1-1.12s.69-1.71.69-2.9c0-1-.18-1.82-.54-2.44s-.77-1.02-1.25-1.19c-.48-.18-1.14-.26-2-.26h-1.82Z"/>
        <path class="cls-16" d="M509.56,187h16.21v4.57h-10.35v6.19h8.05v4.57h-8.05v6.56h10.35v4.77h-16.21v-26.66Z"/>
        <path class="cls-16" d="M528.64,187h8.38c1.63,0,2.87.08,3.74.22s1.74.55,2.63,1.21,1.58,1.56,2.08,2.7.75,2.42.75,3.84c0,3.33-1.25,5.68-3.75,7.03l4.9,11.66h-6.38l-3.57-10.55h-2.93v10.55h-5.86v-26.66ZM534.5,191.31v7.48h2.58c2.29,0,3.44-1.28,3.44-3.85,0-.89-.17-1.61-.51-2.18s-.73-.95-1.18-1.15-1.11-.3-1.98-.3h-2.34Z"/>
        <path class="cls-16" d="M550.2,187h5.86v15.23c0,2.15.1,3.65.29,4.49s.6,1.49,1.22,1.92,1.38.65,2.28.65c.98,0,1.75-.24,2.32-.72s.92-1.12,1.05-1.91.2-2.27.2-4.43v-15.23h4.9v15c0,3-.17,5.23-.52,6.7s-1.22,2.73-2.64,3.79-3.36,1.58-5.83,1.58c-2.32,0-4.14-.39-5.47-1.16s-2.27-1.86-2.83-3.26-.84-3.87-.84-7.41v-15.23Z"/>
        <path class="cls-16" d="M607.13,196.39l-5.33-1.07c.87-5.82,3.82-8.73,8.83-8.73,2.71,0,4.77.75,6.18,2.26s2.12,3.34,2.12,5.52-.78,4.43-2.34,6.57-4.5,4.65-8.81,7.51h11.52l-.43,5.21h-17.07v-5.21c4.88-4.18,7.93-7.13,9.14-8.86s1.82-3.36,1.82-4.91c0-2.21-.83-3.32-2.5-3.32-1,0-1.74.44-2.2,1.31s-.77,2.12-.93,3.73Z"/>
        <path class="cls-16" d="M640.26,200c0,4.82-.69,8.37-2.08,10.64s-3.66,3.42-6.83,3.42-5.57-1.18-6.9-3.54-2-5.65-2-9.85c0-4.84.69-8.4,2.08-10.67s3.66-3.41,6.83-3.41,5.57,1.18,6.9,3.54,2,5.65,2,9.87ZM634.09,200.33c0-4.04-.18-6.63-.55-7.77-.37-1.14-1.09-1.71-2.18-1.71-.98,0-1.68.48-2.11,1.45-.42.96-.64,3.64-.64,8.04s.21,7.01.62,8c.41.99,1.12,1.49,2.13,1.49s1.66-.47,2.09-1.4c.42-.93.64-3.63.64-8.08Z"/>
        <path class="cls-16" d="M648.03,196.39l-5.33-1.07c.87-5.82,3.82-8.73,8.83-8.73,2.71,0,4.77.75,6.18,2.26s2.12,3.34,2.12,5.52-.78,4.43-2.34,6.57-4.5,4.65-8.81,7.51h11.52l-.43,5.21h-17.07v-5.21c4.88-4.18,7.93-7.13,9.14-8.86s1.82-3.36,1.82-4.91c0-2.21-.83-3.32-2.5-3.32-1,0-1.74.44-2.2,1.31s-.77,2.12-.93,3.73Z"/>
        <path class="cls-16" d="M681.2,193.68l-4.75,1.43c-.43-2.84-1.54-4.26-3.34-4.26-1.12,0-1.99.58-2.62,1.73s-.96,3.58-1,7.29c1.09-2.02,2.72-3.03,4.88-3.03,1.97,0,3.62.75,4.96,2.24s2.01,3.53,2.01,6.12c0,2.9-.79,5.11-2.36,6.61s-3.59,2.26-6.05,2.26c-5.9,0-8.85-4.47-8.85-13.4,0-4.83.81-8.39,2.44-10.66s3.88-3.42,6.76-3.42c2.1,0,3.83.6,5.2,1.79s2.27,2.96,2.71,5.3ZM675.67,205.19c0-2.73-.96-4.09-2.89-4.09s-3.03,1.49-3.03,4.48c0,1.42.27,2.48.81,3.18s1.25,1.05,2.14,1.05c1.98,0,2.97-1.54,2.97-4.62Z"/>
      </g>
      <circle class="cls-16" cx="374.26" cy="200.12" r="4.96"/>
      <circle class="cls-16" cx="584.26" cy="200.12" r="4.96"/>
      <rect class="cls-16" x="7.93" y="174.21" width="680.31" height="3.69" rx="1.84" ry="1.84"/>
    </g>
  </g>
</svg>