<svg preserveAspectRatio="xMidYMid meet" viewBox="0 166.8 594 272.40000000000003" xmlns="http://www.w3.org/2000/svg" version="1.0" style="max-height: 500px" width="594" height="272.40000000000003">

<g stroke="none" fill="#000000" transform="translate(0.000000,600.000000) scale(0.100000,-0.100000)">
<path d="M889 4150 c-142 -35 -259 -100 -367 -204 -171 -163 -255 -360 -255&#10;-596 0 -107 21 -240 42 -263 4 -4 34 -1 66 8 127 33 289 11 494 -65 61 -24&#10;114 -41 116 -39 2 3 -10 36 -26 74 -34 82 -35 100 -9 139 l19 30 11 -30 c33&#10;-94 57 -146 73 -166 16 -20 18 -20 11 -3 -16 43 -47 205 -40 212 25 25 141&#10;-17 279 -101 115 -70 155 -86 218 -86 41 0 63 5 82 20 14 11 39 20 57 20 35 0&#10;35 7 0 -98 -17 -52 -17 -52 4 -46 82 24 163 84 201 148 50 86 58 324 15 471&#10;-45 156 -145 309 -269 411 -81 68 -220 138 -325 164 -105 27 -289 26 -397 0z&#10;m-144 -350 c8 -58 26 -74 93 -85 55 -9 54 -21 -4 -30 -56 -8 -84 -34 -84 -77&#10;0 -57 -12 -138 -21 -138 -9 0 -14 29 -24 123 -8 68 -20 82 -80 91 -55 9 -58&#10;23 -7 31 70 12 79 19 92 79 6 31 15 56 20 56 4 0 11 -23 15 -50z m604 -1 c35&#10;-13 34 -10 21 -43 l-9 -25 -53 24 c-29 14 -61 25 -70 25 -9 0 -19 4 -23 9 -12&#10;20 84 27 134 10z m158 -120 c84 -28 90 -37 65 -97 -50 -117 -56 -291 -14 -407&#10;12 -32 22 -63 22 -68 0 -5 -21 10 -46 32 -26 22 -68 51 -95 63 -34 16 -51 32&#10;-59 53 -18 47 -24 175 -11 234 6 30 10 55 9 57 -2 1 -17 6 -33 9 -28 7 -28 6&#10;-11 -7 18 -14 18 -17 1 -86 -17 -71 -17 -176 1 -256 l7 -29 -44 27 c-157 98&#10;-320 129 -332 63 -3 -21 -4 -20 -16 8 -22 50 -23 144 -4 200 16 43 25 53 67&#10;75 29 15 52 35 58 50 5 13 16 32 25 42 16 17 113 53 168 62 56 8 180 -4 242&#10;-25z"/>
<path d="M4368 3795 c-98 -20 -178 -66 -253 -148 -89 -96 -109 -149 -110 -292&#10;0 -106 1 -113 34 -180 112 -227 372 -321 623 -225 67 25 172 114 160 135 -4 7&#10;-33 41 -65 75 l-58 63 -32 -31 c-105 -101 -277 -104 -372 -6 -152 156 -43 414&#10;175 414 63 0 112 -18 170 -62 l52 -39 25 23 c14 13 44 45 66 72 l41 49 -49 44&#10;c-62 56 -130 91 -214 109 -79 16 -105 16 -193 -1z"/>
<path d="M2360 3362 l0 -419 101 -6 c56 -3 108 -3 116 0 11 4 14 31 12 127&#10;l-1 121 123 6 c95 4 135 10 170 26 56 25 118 84 144 138 24 49 31 161 15 219&#10;-19 68 -77 136 -145 171 l-58 30 -239 3 -238 3 0 -419z m421 195 c29 -19 34&#10;-29 37 -68 2 -37 -1 -49 -23 -69 -23 -22 -38 -25 -112 -29 -50 -2 -88 1 -92 7&#10;-3 5 -5 49 -3 96 l3 86 78 0 c65 0 84 -4 112 -23z"/>
<path d="M3142 3483 c3 -297 3 -298 29 -353 50 -107 134 -176 249 -206 75 -19&#10;178 -15 250 10 62 22 139 82 177 140 58 86 63 119 63 428 l0 278 -115 0 -115&#10;0 0 -278 0 -279 -29 -40 c-52 -71 -134 -89 -208 -43 -67 40 -67 45 -73 355&#10;l-5 280 -113 3 -113 3 3 -298z"/>
<path d="M4910 3361 l0 -421 23 0 c12 0 63 -1 112 -3 l90 -2 3 126 3 127 127&#10;4 c107 4 134 8 170 27 110 57 166 146 166 266 0 118 -54 208 -159 263 -50 27&#10;-52 27 -292 30 l-243 4 0 -421z m441 181 c39 -43 37 -76 -5 -118 -33 -33 -36&#10;-34 -120 -34 l-86 0 0 96 0 96 91 -4 c88 -3 92 -4 120 -36z"/>
<path d="M567 3030 c28 -17 90 -65 137 -108 164 -147 279 -232 381 -283 113&#10;-56 178 -69 266 -50 62 13 162 59 154 71 -3 4 -26 11 -52 15 -68 9 -210 58&#10;-290 99 -37 19 -140 78 -228 130 -165 99 -262 139 -367 151 l-53 6 52 -31z"/>
<path d="M352 3021 c-11 -7 -9 -18 11 -57 121 -235 423 -423 680 -424 37 0 67&#10;4 67 8 0 4 -28 22 -62 39 -85 41 -202 130 -323 244 -55 52 -122 110 -149 128&#10;-85 59 -186 87 -224 62z"/>
<path d="M1004 2915 c36 -28 194 -105 288 -141 75 -30 111 -38 185 -42 85 -4&#10;97 -3 147 22 38 18 70 46 105 89 44 54 62 87 46 87 -2 0 -28 -9 -57 -19 -97&#10;-36 -169 -44 -345 -38 -135 4 -188 10 -271 31 -119 30 -124 30 -98 11z"/>
<path d="M2360 2685 c0 -13 39 -15 306 -15 240 0 305 3 302 13 -4 9 -76 13&#10;-306 15 -264 2 -302 0 -302 -13z"/>
<path d="M3145 2452 c-18 -7 -20 -16 -20 -125 l0 -117 30 0 30 0 -3 125 c-2&#10;69 -6 125 -10 124 -4 -1 -16 -4 -27 -7z"/>
<path d="M3665 2453 c-19 -3 -20 -10 -17 -113 3 -101 1 -110 -16 -110 -29 0&#10;-42 21 -42 66 0 35 5 46 28 63 l27 20 -26 1 c-15 0 -38 -9 -53 -21 -21 -16&#10;-26 -29 -26 -63 0 -23 7 -51 15 -63 13 -19 25 -22 86 -22 59 0 70 3 65 16 -3&#10;8 -6 64 -6 124 0 60 -3 108 -7 108 -5 -1 -17 -4 -28 -6z"/>
<path d="M3964 2452 c-17 -2 -21 -10 -20 -40 1 -36 0 -37 -31 -34 -67 7 -110&#10;-86 -68 -145 13 -19 25 -22 90 -21 54 0 73 3 67 11 -4 7 -9 62 -12 122 -5 105&#10;-6 110 -26 107z m-14 -159 c0 -40 -4 -55 -16 -60 -48 -18 -75 76 -34 117 32&#10;32 50 11 50 -57z"/>
<path d="M4561 2441 c-16 -28 14 -51 36 -28 13 13 14 19 3 31 -17 21 -27 20&#10;-39 -3z"/>
<path d="M2388 2438 c8 -8 12 -47 12 -108 0 -61 -4 -100 -12 -108 -9 -9 -3&#10;-12 28 -12 l39 0 -3 55 c-4 54 -3 55 22 55 15 0 29 -7 32 -15 11 -29 24 -15&#10;24 27 l0 42 -21 -23 c-32 -34 -53 -24 -57 28 -4 48 9 65 43 55 11 -4 28 -16&#10;37 -27 15 -20 17 -20 23 -4 16 39 0 47 -92 47 -68 0 -84 -3 -75 -12z"/>
<path d="M4364 2439 c-73 -36 -71 -188 3 -217 56 -21 72 -23 109 -7 46 19 41&#10;28 -8 13 -31 -9 -41 -8 -62 5 -33 22 -50 85 -37 133 22 78 72 96 115 42 l26&#10;-33 0 31 c0 20 -6 34 -16 38 -24 9 -107 6 -130 -5z"/>
<path d="M5224 2438 c-4 -6 1 -17 12 -25 15 -11 20 -11 32 1 8 8 11 19 8 25&#10;-9 14 -43 14 -52 -1z"/>
<path d="M3255 2397 c-18 -20 -20 -33 -15 -93 3 -38 9 -75 13 -81 11 -17 62&#10;-16 76 1 9 11 6 12 -14 8 -25 -4 -25 -3 -25 62 0 59 2 66 20 66 11 0 20 5 20&#10;10 0 6 -9 10 -20 10 -13 0 -20 7 -20 20 0 26 -10 25 -35 -3z"/>
<path d="M2590 2362 c-13 -11 -20 -24 -16 -30 12 -19 26 -14 36 13 12 33 42&#10;23 38 -13 -2 -18 -12 -27 -37 -36 -43 -14 -60 -39 -45 -63 16 -25 149 -31 140&#10;-7 -3 9 -6 38 -6 65 0 79 -56 115 -110 71z m60 -102 c0 -23 -4 -30 -20 -30&#10;-14 0 -20 7 -20 23 0 27 7 37 27 37 8 0 13 -12 13 -30z"/>
<path d="M2782 2370 c-43 -18 -55 -91 -21 -134 16 -20 29 -26 59 -26 20 0 42&#10;6 49 13 8 11 4 13 -21 9 -22 -3 -35 0 -45 14 -16 22 -17 86 -1 102 17 17 48&#10;15 48 -2 0 -21 20 -30 33 -16 9 9 6 16 -12 31 -25 20 -52 23 -89 9z"/>
<path d="M2945 2372 c-19 -3 -21 -8 -17 -70 2 -37 8 -72 13 -78 5 -6 41 -11&#10;80 -12 52 0 68 3 60 11 -6 6 -11 44 -11 85 0 64 -2 73 -16 68 -9 -3 -21 -6&#10;-27 -6 -8 0 -11 -19 -9 -61 7 -110 -39 -106 -48 4 -4 55 -7 62 -25 59z"/>
<path d="M3385 2366 c-11 -8 -16 -19 -12 -30 9 -22 24 -20 30 4 6 24 32 27 41&#10;4 9 -23 0 -33 -44 -50 -22 -9 -42 -25 -45 -35 -12 -35 11 -47 87 -47 51 0 67&#10;3 59 11 -6 6 -11 37 -11 68 0 48 -4 60 -22 73 -28 20 -58 20 -83 2z m63 -103&#10;c-4 -34 -48 -48 -48 -16 0 22 18 43 38 43 9 0 12 -9 10 -27z"/>
<path d="M4066 2357 c-35 -35 -36 -94 -3 -125 30 -29 87 -29 112 -2 10 11 13&#10;20 7 20 -6 0 -14 -4 -17 -10 -9 -14 -48 -13 -63 2 -7 7 -12 22 -12 35 0 21 4&#10;23 50 23 42 0 50 3 50 18 0 30 -23 52 -62 58 -30 5 -41 2 -62 -19z m77 -16 c3&#10;-11 2 -22 -1 -25 -9 -10 -52 -7 -52 3 0 40 43 57 53 22z"/>
<path d="M4575 2373 c-18 -3 -20 -12 -20 -83 l0 -80 30 0 30 0 -3 77 c-2 43&#10;-7 80 -10 84 -4 3 -16 4 -27 2z"/>
<path d="M4675 2355 c-31 -30 -33 -82 -4 -119 26 -33 86 -37 114 -6 10 11 13&#10;20 7 20 -6 0 -14 -4 -17 -10 -11 -17 -54 -11 -65 9 -21 41 -13 51 40 51 46 0&#10;50 2 50 24 0 54 -83 74 -125 31z m79 -11 c9 -22 -1 -34 -30 -34 -25 0 -28 7&#10;-18 34 8 21 40 21 48 0z"/>
<path d="M4865 2373 c-18 -3 -20 -12 -20 -83 l0 -80 28 0 c27 0 27 0 27 71 0&#10;67 1 70 23 67 20 -3 22 -8 22 -71 l0 -67 29 0 c22 0 27 4 22 16 -3 9 -6 42 -6&#10;74 0 50 -3 61 -21 71 -15 8 -28 8 -44 1 -12 -6 -26 -7 -31 -3 -5 4 -18 6 -29&#10;4z"/>
<path d="M5083 2370 c-45 -18 -60 -103 -23 -140 24 -24 78 -26 106 -5 18 14&#10;17 14 -13 9 -45 -9 -63 9 -63 62 0 50 23 82 46 63 8 -6 14 -18 14 -25 0 -19&#10;19 -17 27 2 13 34 -44 54 -94 34z"/>
<path d="M5245 2373 c-18 -3 -20 -12 -20 -83 0 -80 0 -80 26 -80 26 0 27 0 27&#10;80 0 44 -2 81 -6 83 -4 2 -16 2 -27 0z"/>
<path d="M5352 2370 c-14 -6 -22 -17 -20 -27 5 -25 25 -27 33 -3 9 29 40 22&#10;40 -10 0 -18 -7 -26 -31 -32 -39 -10 -57 -30 -52 -60 3 -21 8 -23 71 -25 58&#10;-1 68 1 63 14 -3 8 -6 38 -6 66 0 29 -4 58 -8 64 -11 17 -62 24 -90 13z m56&#10;-107 c-3 -31 -34 -44 -44 -19 -7 19 12 46 33 46 10 0 13 -9 11 -27z"/>
<path d="M5522 2364 c-30 -21 -28 -50 6 -71 52 -32 63 -45 51 -60 -17 -20 -45&#10;-16 -63 10 l-16 22 2 -25 c3 -22 8 -25 49 -28 84 -5 107 50 39 93 -41 26 -53&#10;55 -23 55 9 0 25 -7 35 -17 17 -15 18 -15 18 4 0 35 -58 45 -98 17z"/>
<path d="M3574 2076 c-8 -21 3 -36 27 -36 15 0 20 6 17 22 -4 27 -35 37 -44&#10;14z"/>
<path d="M4040 2069 c-7 -11 -9 -23 -7 -26 7 -6 57 27 57 38 0 18 -40 8 -50&#10;-12z"/>
<path d="M2655 1960 l0 -120 35 0 35 0 0 120 0 120 -35 0 -35 0 0 -120z"/>
<path d="M2399 1991 c-34 -28 -34 -104 0 -132 28 -23 69 -24 99 -3 33 23 27&#10;36 -9 16 -29 -17 -31 -16 -50 7 -32 38 -25 50 34 53 46 3 52 5 49 23 -9 53&#10;-77 73 -123 36z m71 -6 c18 -21 5 -45 -25 -45 -27 0 -31 10 -15 41 13 23 23&#10;24 40 4z"/>
<path d="M2800 2001 c-11 -5 -15 -25 -15 -84 l0 -77 28 0 c27 0 27 0 27 69 0&#10;73 10 92 36 70 12 -10 15 -28 12 -76 -4 -63 -4 -63 23 -63 l26 0 -5 73 c-2 39&#10;-9 77 -14 84 -10 12 -92 15 -118 4z"/>
<path d="M3002 1994 c-24 -17 -28 -44 -11 -77 9 -16 9 -22 0 -25 -14 -5 -14&#10;-39 0 -48 8 -5 6 -10 -5 -16 -43 -24 1 -68 67 -68 42 0 97 34 97 60 0 24 -21&#10;35 -82 44 -63 9 -68 22 -13 28 60 7 78 23 73 65 -2 18 0 33 4 33 4 0 8 5 8 10&#10;0 16 -113 12 -138 -6z m78 -39 c0 -38 -20 -61 -38 -43 -15 15 -15 61 -1 75 19&#10;19 39 3 39 -32z m19 -134 c20 -13 6 -41 -21 -42 -53 -3 -75 9 -65 35 7 18 62&#10;22 86 7z"/>
<path d="M3195 1985 c-72 -71 21 -187 103 -129 12 8 22 20 22 25 0 6 -10 3&#10;-22 -5 -12 -9 -28 -16 -35 -16 -18 0 -43 29 -43 51 0 16 7 19 50 19 43 0 50 3&#10;50 20 0 56 -82 79 -125 35z m73 -18 c3 -23 0 -27 -22 -27 -28 0 -36 26 -14 48&#10;18 18 33 9 36 -21z"/>
<path d="M3379 2002 c-11 -2 -14 -21 -14 -82 0 -79 0 -80 25 -80 25 0 26 1 22&#10;63 -3 48 0 66 12 76 26 22 36 3 36 -70 0 -69 0 -69 28 -69 l28 0 -4 73 c-2 39&#10;-9 77 -14 84 -9 11 -75 14 -119 5z"/>
<path d="M3578 2003 c-14 -3 -15 -9 -7 -26 6 -14 7 -43 1 -80 l-9 -57 31 0 31&#10;0 -3 85 c-4 86 -5 89 -44 78z"/>
<path d="M3698 2000 c-26 -15 -41 -72 -28 -105 22 -59 80 -72 127 -30 l28 25&#10;-31 -17 c-36 -19 -61 -13 -73 19 -12 33 -6 38 51 38 50 0 50 0 44 28 -4 15&#10;-14 33 -23 40 -20 14 -71 15 -95 2z m69 -44 c-9 -22 -47 -21 -47 2 0 10 5 23&#10;12 30 16 16 43 -10 35 -32z"/>
<path d="M3866 2001 c-14 -5 -16 -10 -8 -15 16 -10 16 -118 0 -134 -9 -9 -2&#10;-12 32 -12 34 0 41 3 32 12 -15 15 -16 82 -1 109 8 16 17 19 41 14 25 -6 29&#10;-4 26 11 -5 25 -35 30 -59 8 -17 -16 -19 -16 -19 -1 0 18 -13 20 -44 8z"/>
<path d="M4040 2004 c-12 -4 -15 -22 -15 -84 l0 -80 29 0 c22 0 27 4 22 16 -3&#10;9 -6 47 -6 85 0 38 -3 68 -7 68 -5 -1 -15 -3 -23 -5z"/>
<path d="M4142 1998 c-15 -15 -16 -35 -2 -43 6 -3 15 6 20 20 12 32 34 28 38&#10;-7 3 -21 -3 -27 -38 -40 -75 -30 -65 -82 16 -84 80 -2 79 -2 76 68 -3 39 -10&#10;70 -19 81 -18 20 -73 23 -91 5z m50 -130 c-6 -6 -15 -7 -21 -4 -17 11 -13 44&#10;7 55 14 8 18 5 20 -16 2 -14 -1 -30 -6 -35z"/>
</g>
</svg>