<svg viewBox="0 34.56 281.08799999999997 215.424" xmlns="http://www.w3.org/2000/svg" style="max-height: 500px" width="281.08799999999997" height="215.424"><defs><style>.d{fill:#00609c;}</style></defs><g id="a"/><g id="b"><g><polygon points="90.35 80.04 87.51 84.98 78.84 70.14 81.68 65.2 90.35 80.04" class="d"/><polygon points="106.48 86.11 89.52 86.11 92.36 81.19 109.32 81.19 106.48 86.11" class="d"/><polygon points="109.55 93.72 112.23 98.36 91.09 135.12 85.71 135.12 109.55 93.72" class="d"/><polygon points="138.55 129.53 135.72 134.45 108.49 87.26 111.33 82.35 138.55 129.53" class="d"/><polygon points="133.06 86.25 130.22 81.33 145.29 81.33 142.45 86.25 133.06 86.25" class="d"/><path d="M147.16,83.69l3.9,6.76s.02,.02,.05,.02l-7.82,13.52-8.91-15.44h9.3c.42,0,.81-.21,1.02-.58l2.47-4.29Z" class="d"/><path d="M148.8,79.56l-5.61-9.71,3.16-5.49,8.68,15.02s-.05,.05-.07,.09l-3.78,6.55-2.47-4.25c-.07-.14-.16-.23-.25-.32l.39-.69c.14-.23,.16-.51,.12-.78-.02-.05,.02-.12,0-.16l-.09-.14s0-.05-.02-.07c0-.02-.02-.02-.05-.05Z" class="d"/><polygon points="140.56 130.69 155.51 130.69 152.65 135.65 137.7 135.65 140.56 130.69" class="d"/><polygon points="153.78 86.11 156.62 81.19 173.58 81.19 170.74 86.11 153.78 86.11" class="d"/><polygon points="172.89 92.13 175.59 96.82 157.52 127.25 154.82 122.59 172.89 92.13" class="d"/><polygon points="202.82 129.53 199.98 134.45 172.73 87.26 175.57 82.35 202.82 129.53" class="d"/><polygon points="197.23 86.11 194 80.5 210.45 80.5 207.15 86.11 197.23 86.11" class="d"/><polygon points="204.82 130.69 219.04 130.69 216.2 135.6 201.99 135.6 204.82 130.69" class="d"/><path d="M223.45,63.73c-4.08,0-7.11,3.32-7.11,7.34s3.02,7.34,7.15,7.34,7.01-3.23,7.01-7.27-2.98-7.41-7.06-7.41Zm2.19,12.16c-.3-.32-.46-1.18-.74-2.24-.16-1.02-.74-1.45-1.92-1.45h-.99v3.69h-2.15v-9.18c.85-.16,2.03-.28,3.53-.28,1.75,0,2.54,.28,3.21,.67,.51,.39,.9,1.13,.9,2.01,0,1.02-.78,1.8-1.92,2.15v.09c.9,.35,1.41,1.02,1.68,2.26,.28,1.38,.44,1.96,.67,2.28h-2.28Zm-2.42-7.96c-.55,0-.95,.07-1.18,.12v2.63h1.02c1.18,0,2.12-.39,2.12-1.34,0-.83-.62-1.41-1.96-1.41Zm.23-4.2c-4.08,0-7.11,3.32-7.11,7.34s3.02,7.34,7.15,7.34,7.01-3.23,7.01-7.27-2.98-7.41-7.06-7.41Zm2.19,12.16c-.3-.32-.46-1.18-.74-2.24-.16-1.02-.74-1.45-1.92-1.45h-.99v3.69h-2.15v-9.18c.85-.16,2.03-.28,3.53-.28,1.75,0,2.54,.28,3.21,.67,.51,.39,.9,1.13,.9,2.01,0,1.02-.78,1.8-1.92,2.15v.09c.9,.35,1.41,1.02,1.68,2.26,.28,1.38,.44,1.96,.67,2.28h-2.28Zm-2.42-7.96c-.55,0-.95,.07-1.18,.12v2.63h1.02c1.18,0,2.12-.39,2.12-1.34,0-.83-.62-1.41-1.96-1.41Zm5.21-30.5H63.93c-8.65,0-15.67,7.01-15.67,15.67v93.68c0,8.65,7.01,15.67,15.67,15.67H228.43c8.65,0,15.67-7.01,15.67-15.67V53.09c0-8.65-7.01-15.67-15.67-15.67Zm-6.25,92.07v.09c-.02,.07,.02,.14,0,.18-.02,.05-.05,.05-.07,.07-.02,.09-.02,.21-.07,.28l-4.18,7.22c-.21,.37-.6,.58-.99,.58h-16.89c-.42,0-.78-.21-.99-.58l-22.08-38.23-18.39,31.01-4.18,7.22c-.14,.28-.39,.42-.65,.48-.16,.09-.32,.14-.51,.14h-17.44c-.21,0-.42-.09-.58-.18h-.02v-.02c-.12-.07-.21-.14-.28-.23-.05-.05-.07-.09-.09-.14l-.05-.05-21.16-36.67-20.7,36s-.07,.07-.09,.12c-.18,.37-.58,.65-1.04,.65h-7.91c-.25,0-.48-.09-.69-.25l-.02-.02c-.07-.05-.12-.09-.14-.14h-.02v-.02c-.09-.12-.14-.21-.18-.32l-10.01-17.33c-.07-.14-.07-.32,0-.46l17.58-30.46h-2.79c-.21,0-.37-.05-.53-.14-.05-.02-.09-.05-.12-.09-.12-.07-.21-.16-.3-.28,0-.02-.05-.02-.07-.07l-9.97-17.01c-.25-.37-.3-.83-.07-1.25l4.08-7.11c.18-.3,.48-.48,.81-.53,.05-.02,.09-.05,.12-.05h56.86c.16,0,.32,.09,.42,.25l3.11,5.38,2.91-5.05c.18-.32,.53-.51,.88-.53,.02-.02,.07-.05,.09-.05h56.86c.16,0,.32,.09,.42,.25l10.18,17.65s0,.12,0,.16c.02,.09,.02,.16,0,.25,0,.02,.02,.02,0,.05,0,.02-.02,.02-.02,.05-.02,.09-.07,.21-.14,.35l-4.22,7.18c-.21,.37-.58,.58-.99,.58h-9.25l23.33,40.4c.05,.07,.09,.09,.14,.14,.02,.07,.02,.14,.05,.18l.09,.16c.02,.07-.02,.12,0,.18Zm1.27-49.13c-5.26,0-9.46-4.08-9.46-9.3s4.2-9.18,9.46-9.18,9.41,4.08,9.41,9.18-4.11,9.3-9.41,9.3Zm0-16.64c-4.08,0-7.11,3.32-7.11,7.34s3.02,7.34,7.15,7.34,7.01-3.23,7.01-7.27-2.98-7.41-7.06-7.41Zm2.19,12.16c-.3-.32-.46-1.18-.74-2.24-.16-1.02-.74-1.45-1.92-1.45h-.99v3.69h-2.15v-9.18c.85-.16,2.03-.28,3.53-.28,1.75,0,2.54,.28,3.21,.67,.51,.39,.9,1.13,.9,2.01,0,1.02-.78,1.8-1.92,2.15v.09c.9,.35,1.41,1.02,1.68,2.26,.28,1.38,.44,1.96,.67,2.28h-2.28Zm-2.42-7.96c-.55,0-.95,.07-1.18,.12v2.63h1.02c1.18,0,2.12-.39,2.12-1.34,0-.83-.62-1.41-1.96-1.41Z" class="d"/></g><g><path d="M54.46,213.8v12.9h-2.13v-12.9h2.13Z" class="d"/><path d="M64.43,213.8v1.7h-5.26v3.71h4.12v1.7h-4.12v4.04h5.34v1.74h-7.46v-12.9h7.39Z" class="d"/><path d="M73.42,213.8v1.7h-5.26v3.71h4.12v1.7h-4.12v4.04h5.34v1.74h-7.46v-12.9h7.39Z" class="d"/><path d="M82.42,213.8v1.7h-5.26v3.71h4.12v1.7h-4.12v4.04h5.34v1.74h-7.46v-12.9h7.39Z" class="d"/><path d="M91.23,213.8l2.57,9.3,2.65-9.3h3.04v12.9h-2.01v-11l-3.05,11h-1.57l-3-11.02v11.02h-1.78v-12.9h3.15Z" class="d"/><path d="M104.17,213.8v12.9h-2.13v-12.9h2.13Z" class="d"/><path d="M115.21,222.64c-.41,2.86-1.8,4.29-4.21,4.29-3,0-4.66-2.38-4.66-6.67s1.7-6.69,4.7-6.69c.43,0,.83,.06,1.22,.15,1.68,.44,2.63,1.8,2.98,4.25l-1.99,.29c-.14-1.08-.27-1.57-.54-2.01-.37-.62-.91-.93-1.62-.93-1.66,0-2.47,1.64-2.47,5.03,0,3.21,.83,4.81,2.49,4.81,1.22,0,1.82-.77,2.15-2.8l1.97,.27Z" class="d"/><path d="M121.32,213.8c1.35,0,2.22,.23,2.88,.73,.79,.64,1.24,1.68,1.24,2.94,0,1.6-.62,2.65-1.97,3.38l2.44,5.84h-2.3l-2.01-5.39h-2.01v5.39h-2.13v-12.9h3.87Zm-1.74,5.86h1.64c1.35,0,2.11-.79,2.11-2.2,0-.25-.02-.46-.08-.68-.25-.93-.87-1.33-2.03-1.33h-1.64v4.21Z" class="d"/><path d="M133.17,213.76c2.17,.66,3.25,2.84,3.25,6.5,0,1.08-.12,2.11-.35,3.05-.54,2.32-2.07,3.62-4.25,3.62-.5,0-.99-.08-1.43-.19-2.11-.66-3.23-2.88-3.23-6.44,0-4.45,1.6-6.73,4.72-6.73,.46,0,.89,.06,1.3,.19Zm-2.18,1.7c-1.06,.46-1.59,2.05-1.59,4.78,0,.54,.02,1.02,.06,1.49,.23,2.38,.95,3.44,2.34,3.44,1.62,0,2.38-1.57,2.38-4.93,0-.54-.02-1.02-.06-1.45-.23-2.4-.95-3.46-2.3-3.46-.35,0-.58,.04-.83,.14Z" class="d"/><path d="M139.46,213.8l1.74,9.67,2.03-9.67h1.84l2.01,9.67,1.84-9.67h1.8l-2.73,12.91h-1.91l-2.03-9.45-2.01,9.45h-1.95l-2.78-12.91h2.17Z" class="d"/><path d="M156.22,213.8l3.44,12.9h-2.17l-.81-3.23h-3.77l-.79,3.23h-2.03l3.73-12.9h2.4Zm-1.41,2.09l-1.47,5.9h2.92l-1.45-5.9Z" class="d"/><path d="M161.24,213.8l2.46,10.29,2.44-10.29h1.89l-3.4,12.91-2.3-.02-3.33-12.9h2.24Z" class="d"/><path d="M176.89,213.8v1.7h-5.26v3.71h4.12v1.7h-4.12v4.04h5.34v1.74h-7.46v-12.9h7.39Z" class="d"/><path d="M188.91,213.8v1.82h-2.9v11.08h-2.13v-11.08h-2.84v-1.82h7.87Z" class="d"/><path d="M192.37,213.8v5.35h3.81v-5.35h2.13v12.9h-2.13v-5.74h-3.81v5.74h-2.13v-12.9h2.13Z" class="d"/><path d="M208.27,213.8v1.7h-5.26v3.71h4.12v1.7h-4.12v4.04h5.34v1.74h-7.46v-12.9h7.39Z" class="d"/><path d="M215.27,213.76c2.17,.66,3.25,2.84,3.25,6.5,0,1.08-.12,2.11-.35,3.05-.54,2.32-2.07,3.62-4.25,3.62-.5,0-.99-.08-1.43-.19-2.11-.66-3.23-2.88-3.23-6.44,0-4.45,1.6-6.73,4.72-6.73,.46,0,.89,.06,1.29,.19Zm-2.18,1.7c-1.06,.46-1.58,2.05-1.58,4.78,0,.54,.02,1.02,.06,1.49,.23,2.38,.95,3.44,2.34,3.44,1.62,0,2.38-1.57,2.38-4.93,0-.54-.02-1.02-.06-1.45-.23-2.4-.95-3.46-2.3-3.46-.35,0-.58,.04-.83,.14Z" class="d"/><path d="M224.51,213.8c1.35,0,2.22,.23,2.88,.73,.79,.64,1.24,1.68,1.24,2.94,0,1.6-.62,2.65-1.97,3.38l2.44,5.84h-2.3l-2.01-5.39h-2.01v5.39h-2.13v-12.9h3.87Zm-1.74,5.86h1.64c1.35,0,2.11-.79,2.11-2.2,0-.25-.02-.46-.08-.68-.25-.93-.87-1.33-2.03-1.33h-1.64v4.21Z" class="d"/><path d="M231.45,213.8l2.36,5.37,2.42-5.37h2.03l-3.58,7.44v5.45h-2.13v-5.45l-3.42-7.44h2.32Z" class="d"/></g><g><path d="M62.04,239.25c-.37,1.89-.83,3.05-1.74,4.39,.56,.66,.87,.87,1.35,.87,.17,0,.29-.02,.6-.08v1.66c-.46,.14-.72,.17-1.04,.17-.35,0-.68-.08-.97-.19-.43-.21-.7-.46-1.22-1.08-1.16,.99-2.03,1.33-3.31,1.33-.46,0-.91-.06-1.33-.19-1.55-.44-2.55-1.86-2.55-3.6,0-.43,.06-.81,.17-1.2,.39-1.16,1.18-1.93,2.65-2.63-.81-1.26-1.14-2.13-1.14-2.96,0-.37,.08-.7,.23-1.06,.46-1.08,1.53-1.72,2.8-1.72,1.74,0,2.9,1.12,2.9,2.8,0,1.33-.75,2.42-2.34,3.34l2.18,3.17c.56-.91,.87-1.84,1.16-3.38l1.59,.35Zm-6.55,.68c-1.14,.72-1.6,1.45-1.6,2.51,0,.37,.08,.73,.21,1.06,.31,.75,1.02,1.22,1.89,1.22,.81,0,1.43-.29,2.11-1.01l-2.61-3.79Zm2.26-4.18c0-.14-.02-.27-.04-.41-.14-.58-.56-.93-1.12-.93-.14,0-.27,.02-.43,.08-.48,.17-.77,.62-.77,1.2,0,.62,.29,1.37,.87,2.24,.99-.56,1.49-1.31,1.49-2.18Z" class="d"/><path d="M74.94,233.19v1.82h-2.9v11.08h-2.13v-11.08h-2.84v-1.82h7.87Z" class="d"/><path d="M84,233.19v1.7h-5.26v3.71h4.12v1.7h-4.12v4.04h5.34v1.74h-7.46v-12.9h7.39Z" class="d"/><path d="M94.19,242.03c-.41,2.86-1.8,4.29-4.21,4.29-3,0-4.66-2.38-4.66-6.67s1.7-6.69,4.7-6.69c.43,0,.83,.06,1.22,.15,1.68,.44,2.63,1.8,2.98,4.25l-1.99,.29c-.14-1.08-.27-1.57-.54-2.01-.37-.62-.91-.93-1.62-.93-1.66,0-2.47,1.64-2.47,5.03,0,3.21,.83,4.81,2.49,4.81,1.22,0,1.82-.77,2.15-2.8l1.97,.27Z" class="d"/><path d="M98.56,233.19v5.35h3.81v-5.35h2.13v12.9h-2.13v-5.74h-3.81v5.74h-2.13v-12.9h2.13Z" class="d"/><path d="M109.85,233.19l4.23,9.3v-9.3h1.78v12.9h-1.99l-4.76-10.32v10.32h-1.78v-12.9h2.51Z" class="d"/><path d="M124.34,233.16c2.17,.66,3.25,2.84,3.25,6.5,0,1.08-.12,2.11-.35,3.05-.54,2.32-2.07,3.62-4.25,3.62-.5,0-.99-.08-1.43-.19-2.11-.66-3.23-2.88-3.23-6.44,0-4.45,1.6-6.73,4.72-6.73,.46,0,.89,.06,1.3,.19Zm-2.19,1.7c-1.06,.46-1.58,2.05-1.58,4.78,0,.54,.02,1.02,.06,1.49,.23,2.38,.95,3.44,2.34,3.44,1.62,0,2.38-1.57,2.38-4.93,0-.54-.02-1.02-.06-1.45-.23-2.4-.95-3.46-2.3-3.46-.35,0-.58,.04-.83,.14Z" class="d"/><path d="M132.19,233.19v11.1h4.56v1.8h-6.69v-12.9h2.13Z" class="d"/><path d="M143.92,233.16c2.17,.66,3.25,2.84,3.25,6.5,0,1.08-.12,2.11-.35,3.05-.54,2.32-2.07,3.62-4.25,3.62-.5,0-.99-.08-1.43-.19-2.11-.66-3.23-2.88-3.23-6.44,0-4.45,1.6-6.73,4.72-6.73,.46,0,.89,.06,1.3,.19Zm-2.19,1.7c-1.06,.46-1.58,2.05-1.58,4.78,0,.54,.02,1.02,.06,1.49,.23,2.38,.95,3.44,2.34,3.44,1.62,0,2.38-1.57,2.38-4.93,0-.54-.02-1.02-.06-1.45-.23-2.4-.95-3.46-2.3-3.46-.35,0-.58,.04-.83,.14Z" class="d"/><path d="M158.32,239.48v6.71h-1.12l-.29-1.64c-.73,1.24-1.66,1.78-3.09,1.78-2.86,0-4.6-2.47-4.6-6.55,0-1.37,.19-2.61,.6-3.79,.68-1.93,2.2-3.02,4.25-3.02,2.4,0,3.67,1.18,4.19,3.92l-1.93,.48c-.21-1.01-.35-1.41-.6-1.78-.37-.58-.95-.87-1.66-.87-1.74,0-2.59,1.6-2.59,4.93,0,.72,.06,1.41,.15,2.09,.27,1.84,1.14,2.82,2.49,2.82,1.49,0,2.2-1.08,2.2-3.36h-2.3v-1.72h4.29Z" class="d"/><path d="M161.36,233.19l2.36,5.37,2.42-5.37h2.03l-3.58,7.44v5.45h-2.13v-5.45l-3.42-7.44h2.32Z" class="d"/><path d="M179.15,236.71c-.48-1.45-1.1-1.99-2.26-1.99-.21,0-.39,.02-.58,.06-.68,.17-1.18,.83-1.18,1.57,0,.19,.04,.39,.1,.54,.25,.64,.68,.91,2.47,1.6,1.28,.48,1.88,.79,2.46,1.29,.72,.62,1.14,1.57,1.14,2.63,0,2.3-1.76,3.91-4.31,3.91-1.33,0-2.47-.43-3.27-1.22-.62-.62-.93-1.22-1.2-2.38l1.89-.54c.35,1.6,1.2,2.38,2.61,2.38,.23,0,.45-.02,.66-.08,.87-.19,1.43-.87,1.43-1.78,0-.97-.54-1.49-2.18-2.11-1.78-.68-2.11-.83-2.73-1.37-.73-.64-1.16-1.58-1.16-2.63,0-2.15,1.62-3.63,3.96-3.63,.45,0,.87,.06,1.28,.15,1.37,.37,2.17,1.26,2.69,2.96l-1.82,.64Z" class="d"/><path d="M189.2,233.16c2.17,.66,3.25,2.84,3.25,6.5,0,1.08-.12,2.11-.35,3.05-.54,2.32-2.07,3.62-4.25,3.62-.5,0-.99-.08-1.43-.19-2.11-.66-3.23-2.88-3.23-6.44,0-4.45,1.6-6.73,4.72-6.73,.46,0,.89,.06,1.29,.19Zm-2.18,1.7c-1.06,.46-1.58,2.05-1.58,4.78,0,.54,.02,1.02,.06,1.49,.23,2.38,.95,3.44,2.34,3.44,1.62,0,2.38-1.57,2.38-4.93,0-.54-.02-1.02-.06-1.45-.23-2.4-.95-3.46-2.3-3.46-.35,0-.58,.04-.83,.14Z" class="d"/><path d="M203.37,242.03c-.41,2.86-1.8,4.29-4.21,4.29-3,0-4.66-2.38-4.66-6.67s1.7-6.69,4.7-6.69c.43,0,.83,.06,1.22,.15,1.68,.44,2.63,1.8,2.98,4.25l-1.99,.29c-.13-1.08-.27-1.57-.54-2.01-.37-.62-.91-.93-1.62-.93-1.66,0-2.47,1.64-2.47,5.03,0,3.21,.83,4.81,2.49,4.81,1.22,0,1.82-.77,2.15-2.8l1.97,.27Z" class="d"/><path d="M207.71,233.19v12.9h-2.13v-12.9h2.13Z" class="d"/><path d="M218.03,233.19v1.7h-5.26v3.71h4.12v1.7h-4.12v4.04h5.34v1.74h-7.46v-12.9h7.38Z" class="d"/><path d="M227.85,233.19v1.82h-2.9v11.08h-2.13v-11.08h-2.84v-1.82h7.87Z" class="d"/><path d="M231.18,233.19l2.36,5.37,2.42-5.37h2.03l-3.58,7.44v5.45h-2.13v-5.45l-3.42-7.44h2.32Z" class="d"/></g><g><path d="M179.32,189.99h14.2v6.73h-14.2v-6.73Z" class="d"/><g><path d="M101.42,174.63v29.09h-8.37v-22.16l-12.82,22.16h-7.11l-12.65-22.16v22.16h-8.37v-29.09h14.09l10.68,19.28,10.55-19.28h14Z" class="d"/><path d="M127.76,181.91v21.81h-8.94v-21.81h-13.04v-7.28h34.8v7.28h-12.82Z" class="d"/><path d="M167.67,181.91v21.81h-8.94v-21.81h-13.04v-7.28h34.8v7.28h-12.82Z" class="d"/><path d="M228.56,183.52c-.13-2.7-1.44-2.92-6.63-2.92-.44,0-.7,0-1.13,.04-7.5,.39-10.07-.44-10.07,2.79,0,1.44,1.13,2.18,2.97,2.22,2.57,.04,4.97,.13,7.02,.13,1.22,0,2.57-.04,3.75-.04,9.68,0,14.04,.35,14.04,8.94,0,6.06-2.31,8.2-7.63,8.81-1.57,.17-6.19,.48-13.13,.48-6.8,0-11.16-.26-13.13-1.66-2.79-2.01-2.4-4.4-2.44-7.89h8.77c.04,1.31-.35,2.83,2.75,3.1,.74,.04,2.92,.13,6.02,.13,8.2,0,9.9-.04,9.9-2.66s-2.22-2.57-5.54-2.62c-17.14-.13-22.11,.92-22.11-8.68,0-5.76,1.83-8.2,7.41-8.85,1.83-.22,6.11-.52,12.34-.52,6.67,0,10.42,0,12.78,1.7,2.57,1.88,2.7,4.1,2.75,7.5h-8.68Z" class="d"/></g></g></g><g id="c"/></svg>